<svg width="20" height="20" viewBox="0 0 20 20" fill="none" xmlns="http://www.w3.org/2000/svg">
    <path d="M9.67499 0.674805C4.70429 0.674805 0.674988 4.7041 0.674988 9.6748C0.674988 14.6455 4.70429 18.6748 9.67499 18.6748C14.6457 18.6748 18.675 14.6455 18.675 9.6748C18.675 4.7041 14.6457 0.674805 9.67499 0.674805Z" stroke="black" stroke-width="1.35" stroke-linecap="round" stroke-linejoin="round"/>
    <path d="M2.71887 15.3858C2.71887 15.3858 4.72497 12.8244 9.67497 12.8244C14.625 12.8244 16.632 15.3858 16.632 15.3858M9.67497 9.67441C10.3911 9.67441 11.0778 9.38995 11.5842 8.8836C12.0905 8.37725 12.375 7.6905 12.375 6.97441C12.375 6.25833 12.0905 5.57157 11.5842 5.06523C11.0778 4.55888 10.3911 4.27441 9.67497 4.27441C8.95889 4.27441 8.27213 4.55888 7.76578 5.06523C7.25944 5.57157 6.97497 6.25833 6.97497 6.97441C6.97497 7.6905 7.25944 8.37725 7.76578 8.8836C8.27213 9.38995 8.95889 9.67441 9.67497 9.67441V9.67441Z" stroke="black" stroke-width="1.35" stroke-linecap="round" stroke-linejoin="round"/>
</svg>
