<svg width="22" height="22" viewBox="0 0 22 22" fill="none" xmlns="http://www.w3.org/2000/svg">
    <path d="M20.6265 9.67657C20.6259 9.67613 20.6254 9.67549 20.6249 9.67502L12.3245 1.37501C11.9707 1.02099 11.5003 0.826172 11 0.826172C10.4997 0.826172 10.0293 1.02099 9.67532 1.37497L1.37925 9.6708C1.37647 9.67359 1.37353 9.67653 1.37091 9.67935C0.64434 10.41 0.645612 11.5956 1.37448 12.3245C1.70744 12.6577 2.14707 12.8505 2.61734 12.8708C2.63658 12.8727 2.65585 12.8736 2.67525 12.8736H3.0059V18.9818C3.0059 20.1907 3.98952 21.1742 5.1984 21.1742H8.44578C8.77504 21.1742 9.04191 20.9071 9.04191 20.578V15.7891C9.04191 15.2375 9.49072 14.7889 10.0423 14.7889H11.9577C12.5093 14.7889 12.9579 15.2376 12.9579 15.7891V20.5781C12.9579 20.9072 13.2248 21.1742 13.554 21.1742H16.8014C18.0105 21.1742 18.9939 20.1907 18.9939 18.9819V12.8736H19.3007C19.8009 12.8736 20.2713 12.6788 20.6254 12.3247C21.355 11.5947 21.3553 10.4069 20.6265 9.67653L20.6265 9.67657ZM19.7822 11.4817C19.7192 11.5452 19.6441 11.5955 19.5615 11.6298C19.4788 11.6641 19.3902 11.6816 19.3007 11.6814H18.3977C18.0685 11.6814 17.8016 11.9482 17.8016 12.2775V18.9819C17.8016 19.5333 17.353 19.9819 16.8014 19.9819H14.1502V15.7891C14.1502 14.5802 13.1667 13.5966 11.9576 13.5966H10.0423C8.83331 13.5966 7.84968 14.5802 7.84968 15.7891V19.9819H5.19848C4.64702 19.9819 4.19821 19.5332 4.19821 18.9819V12.2775C4.19821 11.9482 3.93134 11.6814 3.60208 11.6814H2.71467C2.70537 11.6807 2.69605 11.6803 2.68673 11.6801C2.50912 11.677 2.34257 11.6065 2.21777 11.4815C1.9523 11.2161 1.9523 10.7841 2.21777 10.5184C2.21789 10.5184 2.21789 10.5183 2.21805 10.5181L2.21853 10.5176L10.5186 2.21794C10.5816 2.15448 10.6566 2.10416 10.7393 2.06991C10.8219 2.03567 10.9106 2.01817 11 2.01844C11.1818 2.01844 11.3527 2.08922 11.4814 2.21794L19.7796 10.516L19.7835 10.5197C20.0476 10.7857 20.0471 11.2168 19.7822 11.4817Z" fill="#F54924"/>
</svg>
