<svg width="17" height="18" viewBox="0 0 17 18" fill="none" xmlns="http://www.w3.org/2000/svg">
    <path fill-rule="evenodd" clip-rule="evenodd" d="M1.76046 6.35821C1.76046 4.67191 2.43034 3.05467 3.62274 1.86228C4.81514 0.669881 6.43237 0 8.11867 0C9.80498 0 11.4222 0.669881 12.6146 1.86228C13.807 3.05467 14.4769 4.67191 14.4769 6.35821V9.77711L16.1318 13.087C16.208 13.2394 16.244 13.4086 16.2363 13.5788C16.2287 13.749 16.1777 13.9143 16.0881 14.0592C15.9986 14.2041 15.8734 14.3237 15.7247 14.4066C15.5759 14.4896 15.4084 14.5331 15.2381 14.5331H11.6375C11.4354 15.3126 10.9803 16.003 10.3434 16.4959C9.7065 16.9887 8.92398 17.2561 8.11867 17.2561C7.31336 17.2561 6.53085 16.9887 5.89397 16.4959C5.25709 16.003 4.8019 15.3126 4.59986 14.5331H0.999295C0.828966 14.5331 0.661458 14.4896 0.51268 14.4066C0.363903 14.3237 0.238797 14.2041 0.149243 14.0592C0.05969 13.9143 0.00866325 13.749 0.0010094 13.5788C-0.00664445 13.4086 0.0293288 13.2394 0.105512 13.087L1.76046 9.77711V6.35821ZM6.54547 14.5331C6.70492 14.8092 6.93425 15.0385 7.2104 15.1979C7.48655 15.3574 7.7998 15.4413 8.11867 15.4413C8.43754 15.4413 8.7508 15.3574 9.02695 15.1979C9.3031 15.0385 9.53243 14.8092 9.69188 14.5331H6.54547ZM8.11867 1.81663C6.91417 1.81663 5.759 2.29512 4.90729 3.14683C4.05558 3.99854 3.5771 5.15371 3.5771 6.35821V9.77711C3.57708 10.059 3.51146 10.337 3.38544 10.5891L2.32271 12.7164H13.9155L12.8528 10.5891C12.7265 10.3371 12.6606 10.0591 12.6603 9.77711V6.35821C12.6603 5.15371 12.1818 3.99854 11.3301 3.14683C10.4783 2.29512 9.32318 1.81663 8.11867 1.81663Z" fill="black"/>
</svg>
