<svg width="12" height="12" viewBox="0 0 12 12" fill="none" xmlns="http://www.w3.org/2000/svg">
    <path d="M8.99681 8.23886C8.94378 8.23886 8.89293 8.25992 8.85544 8.29742C8.81794 8.33491 8.79688 8.38577 8.79688 8.43879V11.4003C8.79688 11.4534 8.77581 11.5042 8.73832 11.5417C8.70083 11.5792 8.64997 11.6003 8.59695 11.6003H0.599787C0.546763 11.6003 0.49591 11.5792 0.458416 11.5417C0.420922 11.5042 0.399858 11.4534 0.399858 11.4003V9.00119C0.399858 8.94817 0.378794 8.89731 0.3413 8.85982C0.303806 8.82233 0.252953 8.80126 0.199929 8.80126C0.146905 8.80126 0.0960519 8.82233 0.0585579 8.85982C0.0210639 8.89731 0 8.94817 0 9.00119V11.4003C0 11.5594 0.0631917 11.712 0.175674 11.8245C0.288155 11.9369 0.440714 12.0001 0.599787 12.0001H8.59695C8.75602 12.0001 8.90858 11.9369 9.02106 11.8245C9.13354 11.712 9.19674 11.5594 9.19674 11.4003V8.43879C9.19674 8.38577 9.17567 8.33491 9.13818 8.29742C9.10068 8.25992 9.04983 8.23886 8.99681 8.23886Z" fill="#A3A3A3"/>
    <path d="M3.509 7.93297L3.05896 8.83265L2.03412 9.12555C1.90898 9.16177 1.79895 9.23758 1.72051 9.3416C1.64208 9.44562 1.59947 9.57227 1.59908 9.70255V10.6004C1.59908 10.6535 1.62014 10.7043 1.65763 10.7418C1.69513 10.7793 1.74598 10.8004 1.79901 10.8004H2.63551C2.68267 10.9338 2.77547 11.0462 2.89751 11.1178C3.01955 11.1894 3.16297 11.2155 3.30242 11.1916C3.44187 11.1677 3.56837 11.0952 3.65957 10.987C3.75076 10.8788 3.80078 10.7419 3.80078 10.6004C3.80078 10.4589 3.75076 10.322 3.65957 10.2138C3.56837 10.1057 3.44187 10.0332 3.30242 10.0093C3.16297 9.98535 3.01955 10.0115 2.89751 10.0831C2.77547 10.1547 2.68267 10.2671 2.63551 10.4005H1.99893V10.2006H2.19886C2.35794 10.2006 2.5105 10.1374 2.62298 10.0249C2.73546 9.91241 2.79865 9.75986 2.79865 9.60078V9.32308L3.2265 9.20092H4.79794V10.4005H4.39808C4.34506 10.4005 4.29421 10.4216 4.25671 10.4591C4.21922 10.4965 4.19815 10.5474 4.19815 10.6004C4.19815 10.6535 4.21922 10.7043 4.25671 10.7418C4.29421 10.7793 4.34506 10.8004 4.39808 10.8004H5.63444C5.67516 10.9172 5.75123 11.0185 5.85212 11.0902C5.953 11.1619 6.07369 11.2004 6.19744 11.2004C6.3212 11.2004 6.44189 11.1619 6.54277 11.0902C6.64366 11.0185 6.71973 10.9172 6.76045 10.8004H7.59695C7.64997 10.8004 7.70083 10.7793 7.73832 10.7418C7.77581 10.7043 7.79688 10.6535 7.79688 10.6004V9.8271C7.7966 9.72358 7.76965 9.62188 7.71862 9.53181C7.6676 9.44174 7.59423 9.36634 7.50558 9.31288L6.76364 8.86764L6.47834 8.01155C6.43853 7.89213 6.36215 7.78828 6.26003 7.71468C6.15791 7.64109 6.03522 7.60149 5.90935 7.60149H4.04541C3.93396 7.6011 3.82462 7.63195 3.72981 7.69054C3.635 7.74913 3.5585 7.83312 3.509 7.93297ZM3.19851 10.4005C3.23805 10.4005 3.27671 10.4122 3.30958 10.4342C3.34246 10.4562 3.36809 10.4874 3.38322 10.5239C3.39835 10.5604 3.40231 10.6006 3.3946 10.6394C3.38688 10.6782 3.36784 10.7138 3.33988 10.7418C3.31192 10.7698 3.2763 10.7888 3.23751 10.7965C3.19873 10.8042 3.15853 10.8003 3.122 10.7851C3.08547 10.77 3.05424 10.7444 3.03227 10.7115C3.01031 10.6786 2.99858 10.64 2.99858 10.6004C2.99858 10.5474 3.01964 10.4965 3.05714 10.4591C3.09463 10.4216 3.14548 10.4005 3.19851 10.4005ZM2.39879 9.60078C2.39879 9.65381 2.37773 9.70466 2.34024 9.74215C2.30274 9.77965 2.25189 9.80071 2.19886 9.80071H1.99893V9.70255C1.99892 9.65906 2.01309 9.61676 2.03928 9.58206C2.06547 9.54735 2.10227 9.52213 2.14408 9.51021L2.39879 9.43744V9.60078ZM3.86667 8.11191C3.88315 8.07862 3.90864 8.05061 3.94023 8.03107C3.97182 8.01153 4.00826 8.00123 4.04541 8.00135H4.79794V8.80107H3.52199L3.86667 8.11191ZM6.19744 10.8004C6.1579 10.8004 6.11925 10.7886 6.08637 10.7667C6.05349 10.7447 6.02787 10.7135 6.01273 10.6769C5.9976 10.6404 5.99364 10.6002 6.00136 10.5614C6.00907 10.5226 6.02811 10.487 6.05607 10.4591C6.08403 10.4311 6.11966 10.4121 6.15844 10.4043C6.19722 10.3966 6.23742 10.4006 6.27395 10.4157C6.31049 10.4308 6.34171 10.4565 6.36368 10.4894C6.38565 10.5222 6.39737 10.5609 6.39737 10.6004C6.39737 10.6535 6.37631 10.7043 6.33882 10.7418C6.30132 10.7793 6.25047 10.8004 6.19744 10.8004ZM6.76045 10.4005C6.71973 10.2836 6.64366 10.1823 6.54277 10.1106C6.44189 10.039 6.3212 10.0005 6.19744 10.0005C6.07369 10.0005 5.953 10.039 5.85212 10.1106C5.75123 10.1823 5.67516 10.2836 5.63444 10.4005H5.1978V9.20092H6.54192L6.5973 9.23411V9.60078C6.5973 9.75986 6.66049 9.91241 6.77298 10.0249C6.88546 10.1374 7.03802 10.2006 7.19709 10.2006H7.39702V10.4005H6.76045ZM7.39362 9.80071H7.19709C7.14407 9.80071 7.09321 9.77965 7.05572 9.74215C7.01822 9.70466 6.99716 9.65381 6.99716 9.60078V9.47403L7.30005 9.65576C7.32548 9.6714 7.34708 9.69254 7.36328 9.71762C7.37947 9.74271 7.38984 9.7711 7.39362 9.80071ZM6.09888 8.1381L6.32 8.80107H5.1978V8.00135H5.90935C5.95129 8.00138 5.99216 8.0146 6.02618 8.03915C6.06019 8.06369 6.08563 8.09831 6.09888 8.1381ZM1.19922 6.20199C1.19922 6.25501 1.22028 6.30587 1.25778 6.34336C1.29527 6.38085 1.34612 6.40192 1.39915 6.40192H2.59872C2.65175 6.40192 2.7026 6.38085 2.74009 6.34336C2.77759 6.30587 2.79865 6.25501 2.79865 6.20199V5.00241C2.79865 4.94939 2.77759 4.89854 2.74009 4.86104C2.7026 4.82355 2.65175 4.80248 2.59872 4.80248H1.39915C1.34612 4.80248 1.29527 4.82355 1.25778 4.86104C1.22028 4.89854 1.19922 4.94939 1.19922 5.00241V6.20199ZM1.59908 5.20234H2.39879V6.00206H1.59908V5.20234ZM5.39773 6.20199C5.39773 6.25501 5.41879 6.30587 5.45629 6.34336C5.49378 6.38085 5.54463 6.40192 5.59766 6.40192H6.79723C6.85026 6.40192 6.90111 6.38085 6.9386 6.34336C6.9761 6.30587 6.99716 6.25501 6.99716 6.20199V5.00241C6.99716 4.94939 6.9761 4.89854 6.9386 4.86104C6.90111 4.82355 6.85026 4.80248 6.79723 4.80248H5.59766C5.54463 4.80248 5.49378 4.82355 5.45629 4.86104C5.41879 4.89854 5.39773 4.94939 5.39773 5.00241V6.20199ZM5.79759 5.20234H6.5973V6.00206H5.79759V5.20234ZM1.19922 8.20128C1.19922 8.2543 1.22028 8.30516 1.25778 8.34265C1.29527 8.38014 1.34612 8.40121 1.39915 8.40121H2.59872C2.65175 8.40121 2.7026 8.38014 2.74009 8.34265C2.77759 8.30516 2.79865 8.2543 2.79865 8.20128V7.0017C2.79865 6.94868 2.77759 6.89783 2.74009 6.86033C2.7026 6.82284 2.65175 6.80177 2.59872 6.80177H1.39915C1.34612 6.80177 1.29527 6.82284 1.25778 6.86033C1.22028 6.89783 1.19922 6.94868 1.19922 7.0017V8.20128ZM1.59908 7.20163H2.39879V8.00135H1.59908V7.20163ZM3.26828 2.45152L2.75867 2.88876C2.74086 2.86268 2.71703 2.84128 2.68918 2.82638C2.66133 2.81148 2.6303 2.80353 2.59872 2.80319H1.39915C1.34612 2.80319 1.29527 2.82426 1.25778 2.86175C1.22028 2.89925 1.19922 2.9501 1.19922 3.00312V4.2027C1.19922 4.25572 1.22028 4.30658 1.25778 4.34407C1.29527 4.38156 1.34612 4.40263 1.39915 4.40263H2.59872C2.65175 4.40263 2.7026 4.38156 2.74009 4.34407C2.77759 4.30658 2.79865 4.25572 2.79865 4.2027V3.38079L3.52859 2.75501C3.54966 2.7383 3.56714 2.71752 3.57999 2.6939C3.59284 2.67027 3.60079 2.6443 3.60337 2.61754C3.60594 2.59077 3.6031 2.56376 3.595 2.53812C3.58689 2.51249 3.5737 2.48874 3.55621 2.46832C3.53872 2.4479 3.51729 2.43121 3.4932 2.41926C3.46912 2.40731 3.44286 2.40035 3.41602 2.39878C3.38918 2.39721 3.36229 2.40107 3.33698 2.41013C3.31166 2.4192 3.28843 2.43327 3.26868 2.45152H3.26828ZM2.3914 3.20305L2.00933 3.53054L1.68185 3.20305H2.3914ZM2.39879 4.00277H1.59908V3.68568L1.85759 3.94419C1.89321 3.97981 1.94096 4.00067 1.9913 4.00259C2.04164 4.00452 2.09085 3.98738 2.12909 3.95459L2.39879 3.72287V4.00277ZM4.79794 4.00277H3.39844C3.34541 4.00277 3.29456 4.02383 3.25707 4.06133C3.21957 4.09882 3.19851 4.14967 3.19851 4.2027C3.19851 4.25572 3.21957 4.30658 3.25707 4.34407C3.29456 4.38156 3.34541 4.40263 3.39844 4.40263H4.79794C4.85097 4.40263 4.90182 4.38156 4.93931 4.34407C4.97681 4.30658 4.99787 4.25572 4.99787 4.2027C4.99787 4.14967 4.97681 4.09882 4.93931 4.06133C4.90182 4.02383 4.85097 4.00277 4.79794 4.00277ZM4.79794 6.40192C4.85097 6.40192 4.90182 6.38085 4.93931 6.34336C4.97681 6.30587 4.99787 6.25501 4.99787 6.20199C4.99787 6.14896 4.97681 6.09811 4.93931 6.06062C4.90182 6.02312 4.85097 6.00206 4.79794 6.00206H3.39844C3.34541 6.00206 3.29456 6.02312 3.25707 6.06062C3.21957 6.09811 3.19851 6.14896 3.19851 6.20199C3.19851 6.25501 3.21957 6.30587 3.25707 6.34336C3.29456 6.38085 3.34541 6.40192 3.39844 6.40192H4.79794ZM6.79723 3.20305C6.85026 3.20305 6.90111 3.18199 6.9386 3.14449C6.9761 3.107 6.99716 3.05615 6.99716 3.00312C6.99716 2.9501 6.9761 2.89925 6.9386 2.86175C6.90111 2.82426 6.85026 2.80319 6.79723 2.80319H5.59766C5.54463 2.80319 5.49378 2.82426 5.45629 2.86175C5.41879 2.89925 5.39773 2.9501 5.39773 3.00312V4.2027C5.39773 4.25572 5.41879 4.30658 5.45629 4.34407C5.49378 4.38156 5.54463 4.40263 5.59766 4.40263H6.79723C6.85026 4.40263 6.90111 4.38156 6.9386 4.34407C6.9761 4.30658 6.99716 4.25572 6.99716 4.2027V3.80284C6.99716 3.74981 6.9761 3.69896 6.9386 3.66147C6.90111 3.62397 6.85026 3.60291 6.79723 3.60291C6.74421 3.60291 6.69335 3.62397 6.65586 3.66147C6.61837 3.69896 6.5973 3.74981 6.5973 3.80284V4.00277H5.79759V3.20305H6.79723Z" fill="#A3A3A3"/>
    <path d="M11.5771 2.50117C11.5547 2.45313 11.5141 2.41595 11.4643 2.39781L10.9007 2.19268L11.1059 1.62908C11.1148 1.60438 11.1189 1.57815 11.1177 1.55189C11.1165 1.52563 11.1102 1.49986 11.099 1.47605C11.0879 1.45225 11.0722 1.43087 11.0527 1.41315C11.0333 1.39543 11.0106 1.38171 10.9859 1.37277L11.191 0.809372C11.2187 0.735198 11.2314 0.656282 11.2284 0.577174C11.2254 0.498066 11.2068 0.420331 11.1736 0.348452C11.1405 0.276574 11.0934 0.211973 11.0351 0.158376C10.9769 0.104778 10.9086 0.0632446 10.8342 0.0361696C10.7598 0.0090945 10.6808 -0.0029862 10.6017 0.000624069C10.5226 0.00423434 10.445 0.0234642 10.3734 0.0572047C10.3018 0.0909452 10.2376 0.138529 10.1844 0.197212C10.1313 0.255894 10.0903 0.324515 10.0638 0.399118L9.8591 0.962718C9.83441 0.953771 9.8082 0.949778 9.78196 0.950965C9.75572 0.952152 9.72998 0.958497 9.70619 0.969636C9.68241 0.980776 9.66105 0.996493 9.64335 1.01589C9.62564 1.03528 9.61193 1.05798 9.60299 1.08268L9.19674 2.19828V1.60369C9.19674 1.44462 9.13354 1.29206 9.02106 1.17958C8.90858 1.06709 8.75602 1.0039 8.59695 1.0039H7.36059C7.31939 0.887363 7.24318 0.786399 7.1424 0.714823C7.04163 0.643248 6.9212 0.604557 6.79759 0.604045C6.74456 0.604045 6.69371 0.582981 6.65622 0.545487C6.61872 0.507993 6.59766 0.45714 6.59766 0.404116V0.204187C6.59766 0.151162 6.57659 0.10031 6.5391 0.0628157C6.50161 0.0253218 6.45075 0.00425788 6.39773 0.00425788H5.79794C5.74492 0.00425788 5.69406 0.0253218 5.65657 0.0628157C5.61908 0.10031 5.59801 0.151162 5.59801 0.204187C5.59801 0.257211 5.61908 0.308064 5.65657 0.345558C5.69406 0.383052 5.74492 0.404116 5.79794 0.404116H6.1978C6.1978 0.563189 6.26099 0.715748 6.37347 0.828229C6.48596 0.940711 6.63851 1.0039 6.79759 1.0039C6.85061 1.0039 6.90146 1.02497 6.93896 1.06246C6.97645 1.09995 6.99752 1.15081 6.99752 1.20383V1.60369H2.19922V1.20383C2.19922 1.15081 2.22028 1.09995 2.25778 1.06246C2.29527 1.02497 2.34612 1.0039 2.39915 1.0039C2.55822 1.0039 2.71078 0.940711 2.82326 0.828229C2.93574 0.715748 2.99894 0.563189 2.99894 0.404116H4.99823C5.05125 0.404116 5.1021 0.383052 5.1396 0.345558C5.17709 0.308064 5.19815 0.257211 5.19815 0.204187C5.19815 0.151162 5.17709 0.10031 5.1396 0.0628157C5.1021 0.0253218 5.05125 0.00425788 4.99823 0.00425788H2.79901C2.74598 0.00425788 2.69513 0.0253218 2.65763 0.0628157C2.62014 0.10031 2.59908 0.151162 2.59908 0.204187V0.404116C2.59908 0.45714 2.57801 0.507993 2.54052 0.545487C2.50303 0.582981 2.45217 0.604045 2.39915 0.604045C2.27554 0.604557 2.15511 0.643248 2.05433 0.714823C1.95355 0.786399 1.87735 0.887363 1.83615 1.0039H0.599787C0.440714 1.0039 0.288155 1.06709 0.175674 1.17958C0.0631917 1.29206 0 1.44462 0 1.60369V8.20135C0 8.25437 0.0210639 8.30523 0.0585579 8.34272C0.0960519 8.38021 0.146905 8.40128 0.199929 8.40128C0.252953 8.40128 0.303806 8.38021 0.3413 8.34272C0.378794 8.30523 0.399858 8.25437 0.399858 8.20135V1.60369C0.399858 1.55067 0.420922 1.49981 0.458416 1.46232C0.49591 1.42483 0.546763 1.40376 0.599787 1.40376H1.79936V1.80362C1.79936 1.85664 1.82043 1.9075 1.85792 1.94499C1.89541 1.98248 1.94627 2.00355 1.99929 2.00355H7.19744C7.25047 2.00355 7.30132 1.98248 7.33882 1.94499C7.37631 1.9075 7.39737 1.85664 7.39737 1.80362V1.40376H8.59695C8.64997 1.40376 8.70083 1.42483 8.73832 1.46232C8.77581 1.49981 8.79688 1.55067 8.79688 1.60369V3.29669L8.53977 4.00284H7.5973C7.54428 4.00284 7.49343 4.0239 7.45593 4.0614C7.41844 4.09889 7.39737 4.14974 7.39737 4.20277C7.39737 4.25579 7.41844 4.30664 7.45593 4.34414C7.49343 4.38163 7.54428 4.4027 7.5973 4.4027H8.39442L7.81223 6.00213H7.5973C7.54428 6.00213 7.49343 6.02319 7.45593 6.06069C7.41844 6.09818 7.39737 6.14903 7.39737 6.20206C7.39737 6.25508 7.41844 6.30594 7.45593 6.34343C7.49343 6.38092 7.54428 6.40199 7.5973 6.40199H7.66668L7.34679 7.28167C7.33804 7.30553 7.33397 7.33085 7.3348 7.35625L7.36858 8.43247C7.36986 8.47241 7.38307 8.51105 7.40652 8.54341C7.42997 8.57577 7.46258 8.60036 7.50014 8.614L7.43176 8.80194C7.42219 8.82673 7.41765 8.85319 7.41842 8.87976C7.4192 8.90633 7.42526 8.93248 7.43626 8.95668C7.44726 8.98088 7.46297 9.00264 7.48248 9.02069C7.50199 9.03875 7.5249 9.05273 7.54988 9.06182C7.57486 9.07091 7.6014 9.07493 7.62795 9.07365C7.6545 9.07236 7.68053 9.06579 7.70451 9.05433C7.72849 9.04286 7.74994 9.02673 7.76761 9.00687C7.78529 8.98702 7.79882 8.96384 7.80743 8.93869L7.8758 8.75075C7.91336 8.76438 7.95413 8.76644 7.99286 8.75668C8.0316 8.74691 8.06652 8.72577 8.09313 8.69597L8.81067 7.89346C8.82802 7.87455 8.8416 7.85249 8.85066 7.82848L9.36488 6.41518C9.38136 6.36576 9.37789 6.31186 9.35523 6.26495C9.33256 6.21804 9.29248 6.18184 9.24351 6.16404C9.19455 6.14624 9.14057 6.14826 9.09308 6.16966C9.04558 6.19106 9.00831 6.23016 8.98921 6.27863L8.54317 7.504L7.79163 7.23049L9.63658 2.15829L10.3879 2.4318L9.26151 5.5275C9.24456 5.57703 9.24772 5.63124 9.2703 5.67847C9.29288 5.7257 9.33309 5.76219 9.38228 5.7801C9.43148 5.79801 9.48573 5.79591 9.5334 5.77424C9.58106 5.75258 9.61832 5.71309 9.63718 5.66425L10.764 2.56855L11.1396 2.7053L10.3739 4.80955C10.3641 4.8344 10.3594 4.86095 10.3601 4.88765C10.3607 4.91435 10.3667 4.94065 10.3776 4.965C10.3886 4.98935 10.4044 5.01125 10.4239 5.02941C10.4435 5.04758 10.4665 5.06164 10.4916 5.07076C10.5167 5.07989 10.5434 5.08389 10.5701 5.08253C10.5967 5.08118 10.6229 5.07449 10.6469 5.06287C10.671 5.05125 10.6924 5.03493 10.7101 5.01488C10.7277 4.99482 10.7411 4.97144 10.7496 4.9461L11.5837 2.65412C11.5927 2.62944 11.5967 2.60323 11.5956 2.57699C11.5945 2.55074 11.5882 2.52498 11.5771 2.50117ZM10.4399 0.535869C10.458 0.486026 10.4952 0.445428 10.5433 0.423007C10.5914 0.400586 10.6464 0.398177 10.6962 0.416312C10.746 0.434446 10.7866 0.471638 10.8091 0.519705C10.8315 0.567772 10.8339 0.622778 10.8158 0.672621L10.6106 1.23602L10.2348 1.09927L10.4399 0.535869ZM7.885 8.3289L7.76364 8.28472L7.74365 7.63915L8.31605 7.84747L7.885 8.3289ZM9.77353 1.78363L9.91028 1.40776L10.6618 1.68126L10.5249 2.05713L9.77353 1.78363Z" fill="#A3A3A3"/>
</svg>
