<svg width="25" height="17" viewBox="0 0 25 17" fill="none" xmlns="http://www.w3.org/2000/svg">
    <path d="M17.4258 8.8372C14.9365 8.89674 14.9324 12.5455 17.4208 12.6116C19.9101 12.5513 19.9134 8.90418 17.4258 8.8372ZM16.7766 10.7269C16.7774 9.88005 18.0651 9.87674 18.07 10.7236C18.0667 11.568 16.7832 11.5713 16.7766 10.7269ZM12.4629 7.64797C14.9514 7.58512 14.9514 3.93639 12.4629 3.87354C9.97367 3.93721 9.97533 7.58346 12.4629 7.64797ZM12.4629 5.11486C13.309 5.11817 13.309 6.40499 12.4629 6.40829C11.6169 6.40416 11.6178 5.11983 12.4629 5.11486ZM18.9715 4.2217C18.8549 4.10493 18.6968 4.03916 18.5318 4.03885C18.3669 4.03854 18.2085 4.10371 18.0915 4.22005L10.9049 11.3728C10.8455 11.4299 10.7981 11.4982 10.7654 11.5738C10.7328 11.6494 10.7155 11.7307 10.7146 11.8131C10.7137 11.8954 10.7292 11.9771 10.7602 12.0534C10.7912 12.1297 10.8371 12.199 10.8952 12.2574C10.9533 12.3158 11.0224 12.362 11.0985 12.3934C11.1747 12.4247 11.2563 12.4406 11.3387 12.4401C11.421 12.4396 11.5024 12.4227 11.5782 12.3904C11.6539 12.3581 11.7225 12.311 11.7798 12.2519L18.9673 5.09998C19.0253 5.04263 19.0715 4.97441 19.1031 4.8992C19.1347 4.82399 19.1512 4.74328 19.1516 4.6617C19.152 4.58011 19.1363 4.49925 19.1054 4.42375C19.0744 4.34825 19.0289 4.27959 18.9715 4.2217ZM7.1139 4.55168C6.9494 4.55168 6.79164 4.61702 6.67532 4.73334C6.559 4.84966 6.49365 5.00743 6.49365 5.17193V6.76225C6.49365 6.92675 6.559 7.08452 6.67532 7.20083C6.79164 7.31715 6.9494 7.3825 7.1139 7.3825C7.2784 7.3825 7.43617 7.31715 7.55249 7.20083C7.66881 7.08452 7.73415 6.92675 7.73415 6.76225V5.17193C7.73415 5.00743 7.66881 4.84966 7.55249 4.73334C7.43617 4.61702 7.2784 4.55168 7.1139 4.55168ZM7.1139 9.10349C6.9494 9.10349 6.79164 9.16884 6.67532 9.28516C6.559 9.40148 6.49365 9.55924 6.49365 9.72374V11.3132C6.49365 11.4777 6.559 11.6355 6.67532 11.7518C6.79164 11.8681 6.9494 11.9335 7.1139 11.9335C7.2784 11.9335 7.43617 11.8681 7.55249 11.7518C7.66881 11.6355 7.73415 11.4777 7.73415 11.3132V9.72374C7.73415 9.55924 7.66881 9.40148 7.55249 9.28516C7.43617 9.16884 7.2784 9.10349 7.1139 9.10349Z" fill="#F8FAFC"/>
    <path d="M23.2627 6.19341C23.6065 6.00903 23.8936 5.73461 24.0933 5.39954C24.2931 5.06447 24.3979 4.68139 24.3966 4.29131V2.16426C24.3959 1.59047 24.1677 1.04036 23.7619 0.634623C23.3562 0.228887 22.8061 0.000656644 22.2323 0H2.16428C1.59048 0.000656644 1.04038 0.228887 0.634642 0.634623C0.228906 1.04036 0.000675187 1.59047 1.85437e-05 2.16426V4.28966C-0.00130178 4.67973 0.103516 5.06282 0.303245 5.39789C0.502973 5.73295 0.790089 6.00737 1.13384 6.19176C1.50484 6.39041 1.81498 6.68601 2.03121 7.04706C2.24743 7.4081 2.36163 7.82106 2.36163 8.24189C2.36163 8.66273 2.24743 9.07569 2.03121 9.43673C1.81498 9.79778 1.50484 10.0934 1.13384 10.292C0.78984 10.4765 0.502562 10.7512 0.302818 11.0866C0.103073 11.422 -0.0016024 11.8054 1.85437e-05 12.1958V14.3212C0.000675187 14.895 0.228906 15.4451 0.634642 15.8508C1.04038 16.2566 1.59048 16.4848 2.16428 16.4854H22.2323C22.8061 16.4848 23.3562 16.2566 23.7619 15.8508C24.1677 15.4451 24.3959 14.895 24.3966 14.3212V12.1958C24.3979 11.8057 24.2931 11.4226 24.0933 11.0876C23.8936 10.7525 23.6065 10.4781 23.2627 10.2937C21.6385 9.48074 21.6509 7.00636 23.2627 6.19341ZM21.22 9.92484C21.5518 10.5444 22.0593 11.052 22.6789 11.3837C22.9758 11.5441 23.1594 11.8551 23.1561 12.1925V14.3179C23.1558 14.5628 23.0584 14.7976 22.8853 14.9708C22.7121 15.144 22.4772 15.2414 22.2323 15.2416H7.73248C7.69858 14.7041 7.94585 13.6753 7.11223 13.6546C6.27779 13.6745 6.52589 14.7082 6.49198 15.2449H2.16428C1.91935 15.2447 1.68452 15.1473 1.51133 14.9741C1.33813 14.8009 1.24074 14.5661 1.24052 14.3212V12.1958C1.23889 12.0303 1.28247 11.8675 1.36656 11.725C1.45065 11.5824 1.57206 11.4656 1.7177 11.387C2.28627 11.0824 2.76156 10.6292 3.0929 10.0758C3.42425 9.52236 3.59925 8.88941 3.59925 8.24438C3.59925 7.59934 3.42425 6.96639 3.0929 6.41297C2.76156 5.85955 2.28627 5.40639 1.7177 5.10177C1.57206 5.02317 1.45065 4.90631 1.36656 4.76377C1.28247 4.62124 1.23889 4.45845 1.24052 4.29296V2.16426C1.24135 1.654 1.65402 1.24133 2.16428 1.2405H6.49198C6.52589 1.77888 6.27696 2.81015 7.11223 2.83083C7.94668 2.81098 7.69858 1.77723 7.73248 1.2405H22.2323C22.7426 1.24133 23.1552 1.654 23.1561 2.16426V4.28966C23.1594 4.62707 22.9758 4.93802 22.6789 5.09846C22.2661 5.31949 21.9009 5.61968 21.6042 5.98189C21.3075 6.34409 21.085 6.76121 20.9495 7.20941C20.8141 7.65762 20.7682 8.12812 20.8146 8.59404C20.8611 9.05996 20.9988 9.51218 21.22 9.92484Z" fill="#F8FAFC"/>
</svg>
