<svg width="19" height="18" viewBox="0 0 19 18" fill="none" xmlns="http://www.w3.org/2000/svg">
    <path d="M11.7331 15.6445C12.9064 12.0482 14.203 10.7507 17.5998 9.77778C14.203 8.80489 12.9064 7.50738 11.7331 3.91112C10.5598 7.50738 9.26323 8.80489 5.86643 9.77778C9.26323 10.7507 10.5598 12.0482 11.7331 15.6445ZM3.91087 6.84445C4.49754 5.04534 5.14581 4.39707 6.84421 3.91112C5.14581 3.42516 4.49754 2.77689 3.91087 0.977783C3.32421 2.77689 2.67594 3.42516 0.977539 3.91112C2.67594 4.39707 3.32421 5.04534 3.91087 6.84445ZM5.37754 16.6222C5.67087 15.7227 5.99452 15.399 6.84421 15.1556C5.99452 14.9121 5.67087 14.5885 5.37754 13.6889C5.08421 14.5885 4.76056 14.9121 3.91087 15.1556C4.76056 15.399 5.08421 15.7227 5.37754 16.6222Z" stroke="#F54924" stroke-width="1.95556" stroke-linejoin="round"/>
</svg>
