<svg width="21" height="21" viewBox="0 0 21 21" fill="none" xmlns="http://www.w3.org/2000/svg">
    <path d="M18.6524 2.0348H16.9567V1.35653C16.9567 0.996759 16.8138 0.651719 16.5594 0.39732C16.305 0.14292 15.9599 0 15.6001 0C15.2404 0 14.8953 0.14292 14.6409 0.39732C14.3865 0.651719 14.2436 0.996759 14.2436 1.35653V2.0348H11.5305V1.35653C11.5305 0.996759 11.3876 0.651719 11.1332 0.39732C10.8788 0.14292 10.5338 0 10.174 0C9.81423 0 9.4692 0.14292 9.2148 0.39732C8.9604 0.651719 8.81748 0.996759 8.81748 1.35653V2.0348H6.10441V1.35653C6.10441 0.996759 5.96149 0.651719 5.70709 0.39732C5.45269 0.14292 5.10765 0 4.74787 0C4.3881 0 4.04306 0.14292 3.78866 0.39732C3.53426 0.651719 3.39134 0.996759 3.39134 1.35653V2.0348H1.69567C1.24595 2.0348 0.814649 2.21345 0.49665 2.53145C0.17865 2.84945 0 3.28075 0 3.73047V17.2958C0 17.7455 0.17865 18.1768 0.49665 18.4948C0.814649 18.8128 1.24595 18.9915 1.69567 18.9915H11.1914C11.2814 18.9915 11.3676 18.9558 11.4312 18.8922C11.4948 18.8286 11.5305 18.7423 11.5305 18.6524C11.5305 18.5624 11.4948 18.4761 11.4312 18.4125C11.3676 18.3489 11.2814 18.3132 11.1914 18.3132H1.69567C1.42608 18.3124 1.16777 18.205 0.977147 18.0143C0.786521 17.8237 0.679072 17.5654 0.678267 17.2958V6.78267H19.6698V12.5479C19.6698 12.6379 19.7055 12.7241 19.7691 12.7877C19.8327 12.8513 19.9189 12.8871 20.0089 12.8871C20.0988 12.8871 20.1851 12.8513 20.2487 12.7877C20.3123 12.7241 20.348 12.6379 20.348 12.5479V3.73047C20.348 3.28075 20.1694 2.84945 19.8514 2.53145C19.5334 2.21345 19.1021 2.0348 18.6524 2.0348ZM14.9219 1.35653C14.9219 1.17665 14.9933 1.00413 15.1205 0.876927C15.2477 0.749727 15.4203 0.678267 15.6001 0.678267C15.78 0.678267 15.9526 0.749727 16.0798 0.876927C16.207 1.00413 16.2784 1.17665 16.2784 1.35653V3.39134C16.2784 3.57122 16.207 3.74374 16.0798 3.87094C15.9526 3.99814 15.78 4.0696 15.6001 4.0696C15.4203 4.0696 15.2477 3.99814 15.1205 3.87094C14.9933 3.74374 14.9219 3.57122 14.9219 3.39134V1.35653ZM9.49574 1.35653C9.49574 1.17665 9.5672 1.00413 9.6944 0.876927C9.8216 0.749727 9.99412 0.678267 10.174 0.678267C10.3539 0.678267 10.5264 0.749727 10.6536 0.876927C10.7808 1.00413 10.8523 1.17665 10.8523 1.35653V3.39134C10.8523 3.57122 10.7808 3.74374 10.6536 3.87094C10.5264 3.99814 10.3539 4.0696 10.174 4.0696C9.99412 4.0696 9.8216 3.99814 9.6944 3.87094C9.5672 3.74374 9.49574 3.57122 9.49574 3.39134V1.35653ZM4.0696 1.35653C4.0696 1.17665 4.14106 1.00413 4.26826 0.876927C4.39546 0.749727 4.56798 0.678267 4.74787 0.678267C4.92776 0.678267 5.10028 0.749727 5.22748 0.876927C5.35468 1.00413 5.42614 1.17665 5.42614 1.35653V3.39134C5.42614 3.57122 5.35468 3.74374 5.22748 3.87094C5.10028 3.99814 4.92776 4.0696 4.74787 4.0696C4.56798 4.0696 4.39546 3.99814 4.26826 3.87094C4.14106 3.74374 4.0696 3.57122 4.0696 3.39134V1.35653ZM19.6698 6.10441H0.678267V3.73047C0.679072 3.46089 0.786521 3.20257 0.977147 3.01195C1.16777 2.82132 1.42608 2.71387 1.69567 2.71307H3.39134V3.39134C3.39134 3.75111 3.53426 4.09615 3.78866 4.35055C4.04306 4.60495 4.3881 4.74787 4.74787 4.74787C5.10765 4.74787 5.45269 4.60495 5.70709 4.35055C5.96149 4.09615 6.10441 3.75111 6.10441 3.39134V2.71307H8.81748V3.39134C8.81748 3.75111 8.9604 4.09615 9.2148 4.35055C9.4692 4.60495 9.81423 4.74787 10.174 4.74787C10.5338 4.74787 10.8788 4.60495 11.1332 4.35055C11.3876 4.09615 11.5305 3.75111 11.5305 3.39134V2.71307H14.2436V3.39134C14.2436 3.75111 14.3865 4.09615 14.6409 4.35055C14.8953 4.60495 15.2404 4.74787 15.6001 4.74787C15.9599 4.74787 16.305 4.60495 16.5594 4.35055C16.8138 4.09615 16.9567 3.75111 16.9567 3.39134V2.71307H18.6524C18.9219 2.71387 19.1802 2.82132 19.3709 3.01195C19.5615 3.20257 19.6689 3.46089 19.6698 3.73047V6.10441Z" fill="#A19BAA"/>
    <path d="M9.49569 9.15678C9.49569 8.9769 9.42423 8.80438 9.29703 8.67718C9.16983 8.54998 8.99731 8.47852 8.81742 8.47852H7.46088C7.281 8.47852 7.10848 8.54998 6.98128 8.67718C6.85408 8.80438 6.78262 8.9769 6.78262 9.15678V10.1742C6.78262 10.3541 6.85408 10.5266 6.98128 10.6538C7.10848 10.781 7.281 10.8525 7.46088 10.8525H8.81742C8.99731 10.8525 9.16983 10.781 9.29703 10.6538C9.42423 10.5266 9.49569 10.3541 9.49569 10.1742V9.15678ZM7.46088 10.1742V9.15678H8.81742V10.1742H7.46088ZM5.42608 9.15678C5.42608 8.9769 5.35462 8.80438 5.22742 8.67718C5.10022 8.54998 4.9277 8.47852 4.74781 8.47852H3.39128C3.21139 8.47852 3.03887 8.54998 2.91167 8.67718C2.78447 8.80438 2.71301 8.9769 2.71301 9.15678V10.1742C2.71301 10.3541 2.78447 10.5266 2.91167 10.6538C3.03887 10.781 3.21139 10.8525 3.39128 10.8525H4.74781C4.9277 10.8525 5.10022 10.781 5.22742 10.6538C5.35462 10.5266 5.42608 10.3541 5.42608 10.1742V9.15678ZM3.39128 10.1742V9.15678H4.74781V10.1742H3.39128ZM16.9566 10.8525C17.1365 10.8525 17.309 10.781 17.4362 10.6538C17.5634 10.5266 17.6349 10.3541 17.6349 10.1742V9.15678C17.6349 8.9769 17.5634 8.80438 17.4362 8.67718C17.309 8.54998 17.1365 8.47852 16.9566 8.47852H15.6001C15.4202 8.47852 15.2477 8.54998 15.1205 8.67718C14.9933 8.80438 14.9218 8.9769 14.9218 9.15678V10.1742C14.9218 10.3541 14.9933 10.5266 15.1205 10.6538C15.2477 10.781 15.4202 10.8525 15.6001 10.8525H16.9566ZM15.6001 9.15678H16.9566V10.1742H15.6001V9.15678ZM9.49569 12.209C9.49569 12.0291 9.42423 11.8566 9.29703 11.7294C9.16983 11.6022 8.99731 11.5307 8.81742 11.5307H7.46088C7.281 11.5307 7.10848 11.6022 6.98128 11.7294C6.85408 11.8566 6.78262 12.0291 6.78262 12.209V13.2264C6.78262 13.4063 6.85408 13.5788 6.98128 13.706C7.10848 13.8332 7.281 13.9047 7.46088 13.9047H8.81742C8.99731 13.9047 9.16983 13.8332 9.29703 13.706C9.42423 13.5788 9.49569 13.4063 9.49569 13.2264V12.209ZM7.46088 13.2264V12.209H8.81742V13.2264H7.46088ZM5.42608 12.209C5.42608 12.0291 5.35462 11.8566 5.22742 11.7294C5.10022 11.6022 4.9277 11.5307 4.74781 11.5307H3.39128C3.21139 11.5307 3.03887 11.6022 2.91167 11.7294C2.78447 11.8566 2.71301 12.0291 2.71301 12.209V13.2264C2.71301 13.4063 2.78447 13.5788 2.91167 13.706C3.03887 13.8332 3.21139 13.9047 3.39128 13.9047H4.74781C4.9277 13.9047 5.10022 13.8332 5.22742 13.706C5.35462 13.5788 5.42608 13.4063 5.42608 13.2264V12.209ZM3.39128 13.2264V12.209H4.74781V13.2264H3.39128ZM8.81742 14.5829H7.46088C7.281 14.5829 7.10848 14.6544 6.98128 14.7816C6.85408 14.9088 6.78262 15.0813 6.78262 15.2612V16.2786C6.78262 16.4585 6.85408 16.631 6.98128 16.7582C7.10848 16.8854 7.281 16.9569 7.46088 16.9569H8.81742C8.99731 16.9569 9.16983 16.8854 9.29703 16.7582C9.42423 16.631 9.49569 16.4585 9.49569 16.2786V15.2612C9.49569 15.0813 9.42423 14.9088 9.29703 14.7816C9.16983 14.6544 8.99731 14.5829 8.81742 14.5829ZM7.46088 16.2786V15.2612H8.81742V16.2786H7.46088ZM11.5305 10.8525H12.887C13.0669 10.8525 13.2394 10.781 13.3666 10.6538C13.4938 10.5266 13.5653 10.3541 13.5653 10.1742V9.15678C13.5653 8.9769 13.4938 8.80438 13.3666 8.67718C13.2394 8.54998 13.0669 8.47852 12.887 8.47852H11.5305C11.3506 8.47852 11.1781 8.54998 11.0509 8.67718C10.9237 8.80438 10.8522 8.9769 10.8522 9.15678V10.1742C10.8522 10.3541 10.9237 10.5266 11.0509 10.6538C11.1781 10.781 11.3506 10.8525 11.5305 10.8525ZM11.5305 9.15678H12.887V10.1742H11.5305V9.15678ZM10.8522 13.2264C10.8522 13.4063 10.9237 13.5788 11.0509 13.706C11.1781 13.8332 11.3506 13.9047 11.5305 13.9047C11.6204 13.9047 11.7067 13.8689 11.7703 13.8053C11.8339 13.7417 11.8696 13.6555 11.8696 13.5655C11.8696 13.4756 11.8339 13.3893 11.7703 13.3257C11.7067 13.2621 11.6204 13.2264 11.5305 13.2264V12.209H12.887C12.977 12.209 13.0632 12.1733 13.1268 12.1097C13.1904 12.0461 13.2262 11.9598 13.2262 11.8699C13.2262 11.7799 13.1904 11.6936 13.1268 11.63C13.0632 11.5664 12.977 11.5307 12.887 11.5307H11.5305C11.3506 11.5307 11.1781 11.6022 11.0509 11.7294C10.9237 11.8566 10.8522 12.0291 10.8522 12.209V13.2264ZM4.74781 14.5829H3.39128C3.21139 14.5829 3.03887 14.6544 2.91167 14.7816C2.78447 14.9088 2.71301 15.0813 2.71301 15.2612V16.2786C2.71301 16.4585 2.78447 16.631 2.91167 16.7582C3.03887 16.8854 3.21139 16.9569 3.39128 16.9569H4.74781C4.9277 16.9569 5.10022 16.8854 5.22742 16.7582C5.35462 16.631 5.42608 16.4585 5.42608 16.2786V15.2612C5.42608 15.0813 5.35462 14.9088 5.22742 14.7816C5.10022 14.6544 4.9277 14.5829 4.74781 14.5829ZM3.39128 16.2786V15.2612H4.74781V16.2786H3.39128Z" fill="#A19BAA"/>
    <path d="M15.9393 11.5303C15.0673 11.5303 14.2149 11.7888 13.4899 12.2733C12.7649 12.7577 12.1998 13.4463 11.8661 14.2519C11.5324 15.0575 11.4451 15.9439 11.6152 16.7991C11.7853 17.6543 12.2052 18.4399 12.8218 19.0565C13.4384 19.673 14.2239 20.0929 15.0792 20.263C15.9344 20.4331 16.8208 20.3458 17.6264 20.0122C18.432 19.6785 19.1205 19.1134 19.605 18.3884C20.0894 17.6634 20.348 16.811 20.348 15.939C20.3466 14.7702 19.8817 13.6496 19.0552 12.823C18.2287 11.9965 17.1081 11.5316 15.9393 11.5303ZM15.9393 19.6695C15.2014 19.6695 14.4802 19.4507 13.8667 19.0408C13.2532 18.6309 12.7751 18.0483 12.4928 17.3666C12.2104 16.6849 12.1365 15.9349 12.2805 15.2112C12.4244 14.4876 12.7797 13.8229 13.3014 13.3012C13.8231 12.7795 14.4878 12.4242 15.2115 12.2802C15.9351 12.1363 16.6852 12.2102 17.3668 12.4925C18.0485 12.7749 18.6311 13.253 19.041 13.8665C19.4509 14.4799 19.6697 15.2012 19.6697 15.939C19.6686 16.928 19.2752 17.8762 18.5758 18.5756C17.8765 19.2749 16.9283 19.6683 15.9393 19.6695Z" fill="#A19BAA"/>
    <path d="M17.8988 14.5181L15.261 17.1558L14.0622 15.9567C13.9982 15.8949 13.9125 15.8607 13.8236 15.8615C13.7347 15.8622 13.6496 15.8979 13.5868 15.9608C13.5239 16.0237 13.4882 16.1087 13.4874 16.1976C13.4867 16.2866 13.5208 16.3722 13.5826 16.4362L15.0212 17.8751C15.0848 17.9387 15.1711 17.9744 15.261 17.9744C15.3509 17.9744 15.4372 17.9387 15.5008 17.8751L18.3783 14.9976C18.4401 14.9336 18.4743 14.848 18.4735 14.759C18.4727 14.6701 18.4371 14.5851 18.3742 14.5222C18.3113 14.4593 18.2262 14.4236 18.1373 14.4229C18.0484 14.4221 17.9627 14.4563 17.8988 14.5181Z" fill="#A19BAA"/>
</svg>
