<svg width="23" height="24" viewBox="0 0 23 24" fill="none" xmlns="http://www.w3.org/2000/svg">
    <path d="M17.252 15.7983C17.1504 15.7983 17.0528 15.8387 16.9809 15.9106C16.909 15.9825 16.8687 16.08 16.8687 16.1817V21.8607C16.8687 21.9624 16.8283 22.0599 16.7564 22.1318C16.6845 22.2037 16.587 22.2441 16.4853 22.2441H1.15014C1.04846 22.2441 0.950944 22.2037 0.879046 22.1318C0.807149 22.0599 0.766757 21.9624 0.766757 21.8607V17.2602C0.766757 17.1585 0.726366 17.061 0.654468 16.9891C0.582571 16.9172 0.485057 16.8768 0.383379 16.8768C0.2817 16.8768 0.184186 16.9172 0.112289 16.9891C0.0403916 17.061 0 17.1585 0 17.2602V21.8607C0 22.1657 0.121175 22.4583 0.336867 22.674C0.552559 22.8897 0.845101 23.0108 1.15014 23.0108H16.4853C16.7903 23.0108 17.0829 22.8897 17.2985 22.674C17.5142 22.4583 17.6354 22.1657 17.6354 21.8607V16.1817C17.6354 16.08 17.595 15.9825 17.5231 15.9106C17.4512 15.8387 17.3537 15.7983 17.252 15.7983Z" fill="#F8FAFC"/>
    <path d="M6.72947 15.2125L5.86648 16.9377L3.90128 17.4993C3.66131 17.5688 3.45031 17.7142 3.29991 17.9136C3.14951 18.1131 3.06781 18.356 3.06705 18.6058V20.3275C3.06705 20.4292 3.10744 20.5267 3.17934 20.5986C3.25124 20.6705 3.34875 20.7109 3.45043 20.7109H5.05448C5.14492 20.9667 5.32288 21.1823 5.55689 21.3196C5.79091 21.4568 6.06593 21.507 6.33333 21.4611C6.60074 21.4152 6.84332 21.2763 7.01819 21.0688C7.19307 20.8614 7.28898 20.5988 7.28898 20.3275C7.28898 20.0562 7.19307 19.7936 7.01819 19.5862C6.84332 19.3788 6.60074 19.2398 6.33333 19.194C6.06593 19.1481 5.79091 19.1982 5.55689 19.3355C5.32288 19.4728 5.14492 19.6884 5.05448 19.9441H3.83381V19.5608H4.21719C4.52222 19.5608 4.81476 19.4396 5.03045 19.2239C5.24615 19.0082 5.36732 18.7157 5.36732 18.4106V17.8781L6.18775 17.6439H9.20111V19.9441H8.43435C8.33267 19.9441 8.23516 19.9845 8.16326 20.0564C8.09136 20.1283 8.05097 20.2258 8.05097 20.3275C8.05097 20.4292 8.09136 20.5267 8.16326 20.5986C8.23516 20.6705 8.33267 20.7109 8.43435 20.7109H10.8052C10.8832 20.935 11.0291 21.1293 11.2226 21.2667C11.416 21.4042 11.6474 21.478 11.8848 21.478C12.1221 21.478 12.3535 21.4042 12.547 21.2667C12.7404 21.1293 12.8863 20.935 12.9644 20.7109H14.5684C14.6701 20.7109 14.7676 20.6705 14.8395 20.5986C14.9114 20.5267 14.9518 20.4292 14.9518 20.3275V18.8446C14.9513 18.6461 14.8996 18.4511 14.8017 18.2784C14.7039 18.1057 14.5632 17.9611 14.3932 17.8586L12.9705 17.0048L12.4234 15.3632C12.347 15.1342 12.2006 14.935 12.0048 14.7939C11.8089 14.6528 11.5737 14.5768 11.3323 14.5768H7.75807C7.54435 14.5761 7.3347 14.6353 7.15289 14.7476C6.97108 14.86 6.8244 15.021 6.72947 15.2125ZM6.13408 19.9441C6.2099 19.9441 6.28403 19.9666 6.34707 20.0088C6.41012 20.0509 6.45926 20.1108 6.48827 20.1808C6.51729 20.2509 6.52488 20.328 6.51009 20.4023C6.4953 20.4767 6.45879 20.545 6.40517 20.5986C6.35155 20.6522 6.28324 20.6887 6.20887 20.7035C6.1345 20.7183 6.05742 20.7107 5.98737 20.6817C5.91731 20.6527 5.85744 20.6036 5.81531 20.5405C5.77318 20.4775 5.7507 20.4034 5.7507 20.3275C5.7507 20.2258 5.79109 20.1283 5.86299 20.0564C5.93489 19.9845 6.0324 19.9441 6.13408 19.9441ZM4.60056 18.4106C4.60056 18.5123 4.56017 18.6098 4.48828 18.6817C4.41638 18.7536 4.31886 18.794 4.21719 18.794H3.83381V18.6058C3.83378 18.5224 3.86094 18.4413 3.91117 18.3747C3.9614 18.3082 4.03195 18.2598 4.11214 18.237L4.60056 18.0974V18.4106ZM7.41533 15.5556C7.44693 15.4918 7.4958 15.4381 7.55638 15.4006C7.61696 15.3631 7.68684 15.3434 7.75807 15.3436H9.20111V16.8771H6.75439L7.41533 15.5556ZM11.8848 20.7109C11.8089 20.7109 11.7348 20.6884 11.6718 20.6463C11.6087 20.6042 11.5596 20.5443 11.5306 20.4742C11.5015 20.4042 11.494 20.3271 11.5087 20.2527C11.5235 20.1784 11.5601 20.1101 11.6137 20.0564C11.6673 20.0028 11.7356 19.9663 11.81 19.9515C11.8843 19.9367 11.9614 19.9443 12.0315 19.9733C12.1015 20.0023 12.1614 20.0515 12.2035 20.1145C12.2457 20.1776 12.2681 20.2517 12.2681 20.3275C12.2681 20.4292 12.2277 20.5267 12.1558 20.5986C12.084 20.6705 11.9864 20.7109 11.8848 20.7109ZM12.9644 19.9441C12.8863 19.72 12.7404 19.5258 12.547 19.3883C12.3535 19.2509 12.1221 19.177 11.8848 19.177C11.6474 19.177 11.416 19.2509 11.2226 19.3883C11.0291 19.5258 10.8832 19.72 10.8052 19.9441H9.96786V17.6439H12.5453L12.6515 17.7075V18.4106C12.6515 18.7157 12.7727 19.0082 12.9884 19.2239C13.2041 19.4396 13.4966 19.5608 13.8017 19.5608H14.185V19.9441H12.9644ZM14.1785 18.794H13.8017C13.7 18.794 13.6025 18.7536 13.5306 18.6817C13.4587 18.6098 13.4183 18.5123 13.4183 18.4106V18.1676L13.9991 18.5161C14.0479 18.5461 14.0893 18.5866 14.1203 18.6347C14.1514 18.6828 14.1713 18.7372 14.1785 18.794ZM11.6958 15.6058L12.1198 16.8771H9.96786V15.3436H11.3323C11.4127 15.3437 11.4911 15.369 11.5563 15.4161C11.6216 15.4631 11.6703 15.5295 11.6958 15.6058ZM2.30029 11.8932C2.30029 11.9949 2.34068 12.0924 2.41258 12.1643C2.48448 12.2362 2.58199 12.2766 2.68367 12.2766H4.98394C5.08562 12.2766 5.18314 12.2362 5.25503 12.1643C5.32693 12.0924 5.36732 11.9949 5.36732 11.8932V9.59293C5.36732 9.49125 5.32693 9.39373 5.25503 9.32184C5.18314 9.24994 5.08562 9.20955 4.98394 9.20955H2.68367C2.58199 9.20955 2.48448 9.24994 2.41258 9.32184C2.34068 9.39373 2.30029 9.49125 2.30029 9.59293V11.8932ZM3.06705 9.9763H4.60056V11.5098H3.06705V9.9763ZM10.3512 11.8932C10.3512 11.9949 10.3916 12.0924 10.4635 12.1643C10.5354 12.2362 10.6329 12.2766 10.7346 12.2766H13.0349C13.1366 12.2766 13.2341 12.2362 13.306 12.1643C13.3779 12.0924 13.4183 11.9949 13.4183 11.8932V9.59293C13.4183 9.49125 13.3779 9.39373 13.306 9.32184C13.2341 9.24994 13.1366 9.20955 13.0349 9.20955H10.7346C10.6329 9.20955 10.5354 9.24994 10.4635 9.32184C10.3916 9.39373 10.3512 9.49125 10.3512 9.59293V11.8932ZM11.118 9.9763H12.6515V11.5098H11.118V9.9763ZM2.30029 15.727C2.30029 15.8287 2.34068 15.9262 2.41258 15.9981C2.48448 16.07 2.58199 16.1104 2.68367 16.1104H4.98394C5.08562 16.1104 5.18314 16.07 5.25503 15.9981C5.32693 15.9262 5.36732 15.8287 5.36732 15.727V13.4267C5.36732 13.325 5.32693 13.2275 5.25503 13.1556C5.18314 13.0837 5.08562 13.0433 4.98394 13.0433H2.68367C2.58199 13.0433 2.48448 13.0837 2.41258 13.1556C2.34068 13.2275 2.30029 13.325 2.30029 13.4267V15.727ZM3.06705 13.8101H4.60056V15.3436H3.06705V13.8101ZM6.26788 4.7014L5.29065 5.53985C5.25651 5.48982 5.2108 5.44878 5.1574 5.42022C5.10401 5.39165 5.0445 5.3764 4.98394 5.37576H2.68367C2.58199 5.37576 2.48448 5.41615 2.41258 5.48805C2.34068 5.55995 2.30029 5.65746 2.30029 5.75914V8.05941C2.30029 8.16109 2.34068 8.2586 2.41258 8.3305C2.48448 8.4024 2.58199 8.44279 2.68367 8.44279H4.98394C5.08562 8.44279 5.18314 8.4024 5.25503 8.3305C5.32693 8.2586 5.36732 8.16109 5.36732 8.05941V6.48334L6.76704 5.28337C6.80744 5.25133 6.84096 5.21147 6.86559 5.16617C6.89023 5.12088 6.90548 5.07108 6.91042 5.01975C6.91537 4.96843 6.90991 4.91664 6.89437 4.86747C6.87883 4.8183 6.85354 4.77278 6.82 4.73361C6.78646 4.69445 6.74537 4.66246 6.69918 4.63954C6.65299 4.61663 6.60265 4.60327 6.55117 4.60026C6.4997 4.59725 6.44815 4.60466 6.3996 4.62204C6.35106 4.63942 6.30652 4.66641 6.26864 4.7014H6.26788ZM4.58638 6.14252L3.85374 6.77049L3.22577 6.14252H4.58638ZM4.60056 7.67603H3.06705V7.06799L3.56276 7.5637C3.63107 7.632 3.72264 7.672 3.81917 7.6757C3.91569 7.67939 4.01006 7.64652 4.08339 7.58364L4.60056 7.1393V7.67603ZM9.20111 7.67603H6.51746C6.41578 7.67603 6.31826 7.71642 6.24637 7.78832C6.17447 7.86022 6.13408 7.95773 6.13408 8.05941C6.13408 8.16109 6.17447 8.2586 6.24637 8.3305C6.31826 8.4024 6.41578 8.44279 6.51746 8.44279H9.20111C9.30279 8.44279 9.4003 8.4024 9.4722 8.3305C9.5441 8.2586 9.58449 8.16109 9.58449 8.05941C9.58449 7.95773 9.5441 7.86022 9.4722 7.78832C9.4003 7.71642 9.30279 7.67603 9.20111 7.67603ZM9.20111 12.2766C9.30279 12.2766 9.4003 12.2362 9.4722 12.1643C9.5441 12.0924 9.58449 11.9949 9.58449 11.8932C9.58449 11.7915 9.5441 11.694 9.4722 11.6221C9.4003 11.5502 9.30279 11.5098 9.20111 11.5098H6.51746C6.41578 11.5098 6.31826 11.5502 6.24637 11.6221C6.17447 11.694 6.13408 11.7915 6.13408 11.8932C6.13408 11.9949 6.17447 12.0924 6.24637 12.1643C6.31826 12.2362 6.41578 12.2766 6.51746 12.2766H9.20111ZM13.0349 6.14252C13.1366 6.14252 13.2341 6.10213 13.306 6.03023C13.3779 5.95833 13.4183 5.86082 13.4183 5.75914C13.4183 5.65746 13.3779 5.55995 13.306 5.48805C13.2341 5.41615 13.1366 5.37576 13.0349 5.37576H10.7346C10.6329 5.37576 10.5354 5.41615 10.4635 5.48805C10.3916 5.55995 10.3512 5.65746 10.3512 5.75914V8.05941C10.3512 8.16109 10.3916 8.2586 10.4635 8.3305C10.5354 8.4024 10.6329 8.44279 10.7346 8.44279H13.0349C13.1366 8.44279 13.2341 8.4024 13.306 8.3305C13.3779 8.2586 13.4183 8.16109 13.4183 8.05941V7.29265C13.4183 7.19097 13.3779 7.09346 13.306 7.02156C13.2341 6.94967 13.1366 6.90927 13.0349 6.90927C12.9332 6.90927 12.8357 6.94967 12.7638 7.02156C12.6919 7.09346 12.6515 7.19097 12.6515 7.29265V7.67603H11.118V6.14252H13.0349Z" fill="#F8FAFC"/>
    <path d="M22.1999 4.79618C22.157 4.70406 22.0792 4.63277 21.9837 4.59797L20.9029 4.20463L21.2963 3.12388C21.3135 3.07651 21.3212 3.02621 21.319 2.97586C21.3167 2.9255 21.3046 2.87609 21.2832 2.83044C21.2618 2.78479 21.2317 2.7438 21.1945 2.70981C21.1572 2.67583 21.1137 2.64952 21.0663 2.63239L21.4596 1.55203C21.5127 1.4098 21.537 1.25847 21.5313 1.10677C21.5256 0.955078 21.4899 0.806016 21.4263 0.668183C21.3627 0.53035 21.2724 0.406474 21.1607 0.303697C21.049 0.20092 20.918 0.121276 20.7753 0.0693578C20.6327 0.0174394 20.4812 -0.00572626 20.3295 0.0011967C20.1779 0.00811966 20.0291 0.0449943 19.8918 0.109694C19.7545 0.174394 19.6313 0.265639 19.5294 0.378168C19.4275 0.490696 19.3489 0.622282 19.2981 0.765337L18.9055 1.84608C18.8582 1.82893 18.8079 1.82127 18.7576 1.82354C18.7073 1.82582 18.6579 1.83799 18.6123 1.85935C18.5667 1.88071 18.5258 1.91085 18.4918 1.94804C18.4579 1.98523 18.4316 2.02875 18.4144 2.07611L17.6354 4.21536V3.07519C17.6354 2.77016 17.5142 2.47762 17.2985 2.26192C17.0829 2.04623 16.7903 1.92506 16.4853 1.92506H14.1145C14.0355 1.70158 13.8893 1.50798 13.6961 1.37073C13.5028 1.23347 13.2719 1.15928 13.0349 1.1583C12.9332 1.1583 12.8357 1.11791 12.7638 1.04601C12.6919 0.974114 12.6515 0.8766 12.6515 0.774922V0.391543C12.6515 0.289865 12.6111 0.192351 12.5392 0.120454C12.4673 0.0485563 12.3698 0.00816479 12.2681 0.00816479H11.118C11.0163 0.00816479 10.9188 0.0485563 10.8469 0.120454C10.775 0.192351 10.7346 0.289865 10.7346 0.391543C10.7346 0.493222 10.775 0.590736 10.8469 0.662633C10.9188 0.73453 11.0163 0.774922 11.118 0.774922H11.8847C11.8847 1.07996 12.0059 1.3725 12.2216 1.58819C12.4373 1.80388 12.7298 1.92506 13.0349 1.92506C13.1365 1.92506 13.2341 1.96545 13.306 2.03735C13.3779 2.10924 13.4183 2.20676 13.4183 2.30844V3.07519H4.21716V2.30844C4.21716 2.20676 4.25756 2.10924 4.32945 2.03735C4.40135 1.96545 4.49886 1.92506 4.60054 1.92506C4.90558 1.92506 5.19812 1.80388 5.41381 1.58819C5.6295 1.3725 5.75068 1.07996 5.75068 0.774922H9.58446C9.68614 0.774922 9.78366 0.73453 9.85555 0.662633C9.92745 0.590736 9.96784 0.493222 9.96784 0.391543C9.96784 0.289865 9.92745 0.192351 9.85555 0.120454C9.78366 0.0485563 9.68614 0.00816479 9.58446 0.00816479H5.3673C5.26562 0.00816479 5.16811 0.0485563 5.09621 0.120454C5.02431 0.192351 4.98392 0.289865 4.98392 0.391543V0.774922C4.98392 0.8766 4.94353 0.974114 4.87163 1.04601C4.79974 1.11791 4.70222 1.1583 4.60054 1.1583C4.36351 1.15928 4.13258 1.23347 3.93933 1.37073C3.74608 1.50798 3.59996 1.70158 3.52095 1.92506H1.15014C0.845101 1.92506 0.552559 2.04623 0.336867 2.26192C0.121175 2.47762 0 2.77016 0 3.07519V15.7267C0 15.8284 0.0403916 15.9259 0.112289 15.9978C0.184186 16.0697 0.2817 16.1101 0.383379 16.1101C0.485057 16.1101 0.582571 16.0697 0.654468 15.9978C0.726366 15.9259 0.766757 15.8284 0.766757 15.7267V3.07519C0.766757 2.97351 0.807149 2.876 0.879046 2.8041C0.950944 2.73221 1.04846 2.69181 1.15014 2.69181H3.45041V3.45857C3.45041 3.56025 3.4908 3.65776 3.5627 3.72966C3.63459 3.80156 3.73211 3.84195 3.83379 3.84195H13.8016C13.9033 3.84195 14.0008 3.80156 14.0727 3.72966C14.1446 3.65776 14.185 3.56025 14.185 3.45857V2.69181H16.4853C16.587 2.69181 16.6845 2.73221 16.7564 2.8041C16.8283 2.876 16.8687 2.97351 16.8687 3.07519V6.32164L16.3756 7.67574H14.5684C14.4667 7.67574 14.3692 7.71613 14.2973 7.78802C14.2254 7.85992 14.185 7.95744 14.185 8.05911C14.185 8.16079 14.2254 8.25831 14.2973 8.3302C14.3692 8.4021 14.4667 8.44249 14.5684 8.44249H16.0969L14.9805 11.5095H14.5684C14.4667 11.5095 14.3692 11.5499 14.2973 11.6218C14.2254 11.6937 14.185 11.7912 14.185 11.8929C14.185 11.9946 14.2254 12.0921 14.2973 12.164C14.3692 12.2359 14.4667 12.2763 14.5684 12.2763H14.7014L14.088 13.9631C14.0712 14.0089 14.0634 14.0574 14.065 14.1061L14.1298 16.1699C14.1322 16.2465 14.1576 16.3206 14.2025 16.3826C14.2475 16.4447 14.31 16.4918 14.3821 16.518L14.2509 16.8784C14.2326 16.9259 14.2239 16.9766 14.2254 17.0276C14.2269 17.0785 14.2385 17.1287 14.2596 17.1751C14.2807 17.2215 14.3108 17.2632 14.3482 17.2978C14.3856 17.3325 14.4296 17.3593 14.4775 17.3767C14.5253 17.3941 14.5762 17.4018 14.6272 17.3994C14.6781 17.3969 14.728 17.3843 14.774 17.3623C14.8199 17.3403 14.8611 17.3094 14.895 17.2713C14.9289 17.2333 14.9548 17.1888 14.9713 17.1406L15.1024 16.7802C15.1744 16.8063 15.2526 16.8103 15.3269 16.7916C15.4012 16.7728 15.4681 16.7323 15.5192 16.6752L16.8951 15.1363C16.9284 15.1 16.9544 15.0577 16.9718 15.0117L17.9578 12.3016C17.9894 12.2068 17.9828 12.1034 17.9393 12.0135C17.8959 11.9236 17.819 11.8541 17.7251 11.82C17.6312 11.7859 17.5277 11.7897 17.4366 11.8308C17.3456 11.8718 17.2741 11.9468 17.2375 12.0397L16.3821 14.3895L14.941 13.865L18.4788 4.13869L19.9196 4.66315L17.7596 10.5994C17.7271 10.6944 17.7332 10.7983 17.7765 10.8889C17.8198 10.9795 17.8969 11.0494 17.9912 11.0838C18.0856 11.1181 18.1896 11.1141 18.281 11.0725C18.3724 11.031 18.4438 10.9553 18.48 10.8616L20.6407 4.92538L21.3611 5.18761L19.8927 9.22267C19.874 9.27031 19.8649 9.32123 19.8662 9.37243C19.8674 9.42363 19.8789 9.47406 19.8999 9.52075C19.9209 9.56744 19.9511 9.60944 19.9886 9.64427C20.0262 9.6791 20.0703 9.70606 20.1185 9.72356C20.1666 9.74105 20.2177 9.74873 20.2689 9.74613C20.32 9.74353 20.3701 9.73071 20.4162 9.70843C20.4623 9.68615 20.5035 9.65486 20.5373 9.6164C20.5711 9.57794 20.5969 9.5331 20.6131 9.48452L22.2126 5.08946C22.2298 5.04214 22.2376 4.99189 22.2354 4.94156C22.2333 4.89124 22.2212 4.84184 22.1999 4.79618ZM20.0193 1.02757C20.054 0.931991 20.1254 0.854142 20.2175 0.811147C20.3097 0.768152 20.4152 0.763534 20.5108 0.798308C20.6063 0.833082 20.6842 0.9044 20.7272 0.996572C20.7702 1.08874 20.7748 1.19422 20.74 1.2898L20.3467 2.37016L19.6259 2.10793L20.0193 1.02757ZM15.1201 15.9713L14.8874 15.8866L14.849 14.6486L15.9466 15.0481L15.1201 15.9713ZM18.7415 3.42023L19.0037 2.69948L20.4448 3.22394L20.1822 3.9447L18.7415 3.42023Z" fill="#F8FAFC"/>
</svg>
