<svg width="22" height="22" viewBox="0 0 22 22" fill="none" xmlns="http://www.w3.org/2000/svg">
    <path d="M10.1313 8.89925C10.1313 8.70517 10.2084 8.51904 10.3456 8.38181C10.4829 8.24458 10.669 8.16748 10.8631 8.16748H14.7658C14.9599 8.16748 15.146 8.24458 15.2833 8.38181C15.4205 8.51904 15.4976 8.70517 15.4976 8.89925C15.4976 9.09333 15.4205 9.27946 15.2833 9.41669C15.146 9.55392 14.9599 9.63102 14.7658 9.63102H10.8631C10.669 9.63102 10.4829 9.55392 10.3456 9.41669C10.2084 9.27946 10.1313 9.09333 10.1313 8.89925ZM6.22852 12.802C6.22852 12.6079 6.30561 12.4218 6.44285 12.2846C6.58008 12.1473 6.76621 12.0703 6.96029 12.0703H14.7658C14.9599 12.0703 15.146 12.1473 15.2833 12.2846C15.4205 12.4218 15.4976 12.6079 15.4976 12.802C15.4976 12.9961 15.4205 13.1822 15.2833 13.3195C15.146 13.4567 14.9599 13.5338 14.7658 13.5338H6.96029C6.76621 13.5338 6.58008 13.4567 6.44285 13.3195C6.30561 13.1822 6.22852 12.9961 6.22852 12.802Z" fill="#A19BAA"/>
    <path fill-rule="evenodd" clip-rule="evenodd" d="M3.58552 3.5727C7.68148 -0.524233 14.322 -0.524233 18.417 3.5727C19.621 4.77573 20.7216 6.62564 21.2143 8.68533C21.71 10.7567 21.6017 13.0955 20.2972 15.2059C20.2386 15.301 20.1814 15.397 20.1255 15.4937C20.1118 15.5288 20.1098 15.5425 20.1098 15.5425C20.1098 15.5425 20.1079 15.5571 20.1098 15.5981C20.1098 15.5913 20.1098 15.5981 20.1196 15.641C20.1362 15.7105 20.1538 15.7798 20.1723 15.8489L20.1781 15.8752C20.3323 16.4665 20.4562 16.9465 20.5294 17.3329C20.6026 17.7222 20.6416 18.0988 20.5684 18.4618C20.4633 18.9779 20.2086 19.4516 19.8361 19.8239C19.4636 20.1962 18.9897 20.4507 18.4736 20.5556C18.1107 20.6298 17.734 20.5907 17.3447 20.5166C16.8554 20.4147 16.3693 20.2979 15.8871 20.1663L15.8607 20.1605C15.7917 20.142 15.7224 20.1244 15.6529 20.1078L15.608 20.098C15.569 20.0961 15.5543 20.098 15.5543 20.098C15.5543 20.098 15.5407 20.1 15.5056 20.1136L15.4509 20.1439C15.3733 20.1902 15.2962 20.2373 15.2197 20.2853C13.118 21.5918 10.8047 21.7274 8.73913 21.2415C6.68432 20.7595 4.83245 19.6541 3.58454 18.4052C-0.511416 14.3092 -0.511416 7.66768 3.58552 3.5727ZM17.3838 4.60693C15.6912 2.91432 13.3955 1.96342 11.0018 1.96342C8.60804 1.96342 6.31236 2.91432 4.61975 4.60693C2.92714 6.29955 1.97624 8.59522 1.97624 10.9889C1.97624 13.3827 2.92714 15.6783 4.61975 17.3709C5.68228 18.4335 7.29315 19.3984 9.07476 19.817C10.8456 20.2336 12.7434 20.1019 14.4479 19.0423L14.4947 19.013C14.6567 18.9125 14.8167 18.813 14.9601 18.7555C15.2013 18.6555 15.4632 18.6156 15.7231 18.6393C15.8763 18.6511 16.0354 18.693 16.1895 18.733L16.2285 18.7428C16.853 18.9047 17.2852 19.016 17.617 19.0794C17.9526 19.1428 18.1038 19.1379 18.1829 19.1213C18.6619 19.0238 19.0366 18.6491 19.1342 18.17C19.1507 18.091 19.1556 17.9398 19.0922 17.6041C18.9941 17.1384 18.8822 16.6757 18.7566 16.2167L18.7458 16.1767C18.7058 16.0235 18.6639 15.8645 18.6522 15.7103C18.6284 15.4514 18.668 15.1906 18.7673 14.9503C18.8239 14.8068 18.9234 14.6458 19.0249 14.4829L19.0541 14.437C20.1069 12.7325 20.2191 10.8133 19.7918 9.02682C19.3625 7.22862 18.3965 5.6197 17.3838 4.60693Z" fill="#A19BAA"/>
</svg>
