<svg width="22" height="23" viewBox="0 0 22 23" fill="none" xmlns="http://www.w3.org/2000/svg">
    <path d="M20.9393 11.7609C20.8938 11.6685 20.8701 11.5669 20.8701 11.4639C20.8701 11.361 20.8938 11.2594 20.9393 11.167L21.7944 9.41763C22.2705 8.44361 21.8933 7.28268 20.9356 6.77456L19.2156 5.86193C19.1245 5.81395 19.0456 5.74568 18.9851 5.66237C18.9245 5.57907 18.884 5.48296 18.8665 5.38148L18.5301 3.46358C18.3428 2.39575 17.355 1.67819 16.2818 1.83004L14.3538 2.10275C14.2519 2.11748 14.148 2.10859 14.05 2.07677C13.9521 2.04494 13.8628 1.99103 13.789 1.91919L12.3896 0.565392C11.6104 -0.188442 10.3896 -0.188486 9.61046 0.565392L8.21099 1.91933C8.13719 1.99114 8.04788 2.04504 7.94995 2.07687C7.85202 2.1087 7.74809 2.1176 7.64617 2.10288L5.71824 1.83017C4.64463 1.67823 3.65722 2.39588 3.4699 3.46372L3.13351 5.38153C3.11603 5.48301 3.07546 5.57911 3.01494 5.66243C2.95441 5.74574 2.87555 5.81403 2.78445 5.86202L1.06443 6.77465C0.106757 7.28273 -0.270474 8.44375 0.205632 9.41777L1.06071 11.1671C1.10623 11.2594 1.1299 11.361 1.1299 11.464C1.1299 11.567 1.10623 11.6686 1.06071 11.761L0.205587 13.5103C-0.270518 14.4843 0.106712 15.6452 1.06439 16.1534L2.7844 17.066C2.87552 17.114 2.95439 17.1823 3.01492 17.2656C3.07545 17.3489 3.11603 17.445 3.13351 17.5464L3.4699 19.4643C3.64043 20.4364 4.47397 21.1182 5.43196 21.1181C5.52631 21.1181 5.62205 21.1115 5.71828 21.0978L7.64621 20.8251C7.74813 20.8104 7.85207 20.8193 7.95001 20.8511C8.04795 20.8829 8.13725 20.9368 8.21103 21.0087L9.61046 22.3625C10.0001 22.7395 10.5 22.9279 11 22.9278C11.4999 22.9278 12 22.7394 12.3895 22.3625L13.789 21.0087C13.94 20.8627 14.1458 20.7959 14.3538 20.8251L16.2818 21.0978C17.3555 21.2497 18.3428 20.5321 18.5301 19.4643L18.8665 17.5465C18.884 17.445 18.9246 17.3489 18.9851 17.2656C19.0456 17.1823 19.1245 17.114 19.2156 17.066L20.9356 16.1534C21.8933 15.6453 22.2705 14.4843 21.7944 13.5103L20.9393 11.7609ZM20.3158 14.9852L18.5958 15.8978C18.0474 16.1888 17.6713 16.7064 17.564 17.3179L17.2277 19.2358C17.198 19.4089 17.1019 19.5636 16.9597 19.6669C16.8176 19.7701 16.6408 19.8138 16.467 19.7885L14.539 19.5158C13.9242 19.4287 13.3158 19.6265 12.8696 20.0582L11.4701 21.4119C11.3443 21.5345 11.1756 21.6032 11 21.6032C10.8243 21.6032 10.6556 21.5345 10.5299 21.4119L9.13042 20.0581C8.75328 19.6933 8.26024 19.4956 7.74554 19.4956C7.65123 19.4956 7.55616 19.5022 7.46096 19.5157L5.53303 19.7884C5.3592 19.8137 5.1824 19.77 5.0403 19.6668C4.8982 19.5635 4.80205 19.4089 4.77234 19.2357L4.4359 17.3178C4.32861 16.7063 3.95255 16.1887 3.40412 15.8978L1.6841 14.9851C1.5286 14.9034 1.41118 14.7642 1.35689 14.5971C1.30261 14.4301 1.31575 14.2484 1.39352 14.0909L2.24865 12.3416C2.52127 11.7838 2.52127 11.1441 2.24865 10.5863L1.39352 8.83692C1.31575 8.67942 1.30261 8.49776 1.35689 8.33069C1.41118 8.16363 1.5286 8.0244 1.6841 7.9427L3.40412 7.03008C3.9525 6.73905 4.32861 6.22147 4.43586 5.60995L4.77225 3.6921C4.80191 3.51896 4.89805 3.36427 5.04016 3.26101C5.18228 3.15776 5.35911 3.11413 5.53294 3.13942L7.46087 3.41213C8.07548 3.49914 8.68409 3.30134 9.13033 2.8697L10.5298 1.5159C10.6556 1.39329 10.8243 1.32467 10.9999 1.32467C11.1756 1.32467 11.3443 1.39329 11.4701 1.5159L12.8695 2.8697C13.3157 3.30139 13.9243 3.49914 14.539 3.41213L16.4669 3.13942C16.6407 3.11415 16.8175 3.1578 16.9596 3.26104C17.1017 3.36429 17.1979 3.51897 17.2276 3.6921L17.564 5.61C17.6713 6.22152 18.0473 6.73914 18.5957 7.03008L20.3158 7.9427C20.4713 8.0244 20.5887 8.16363 20.643 8.33069C20.6973 8.49776 20.6841 8.67942 20.6063 8.83692L19.7512 10.5862C19.4786 11.144 19.4786 11.7838 19.7512 12.3415L20.6063 14.0908C20.6841 14.2483 20.6973 14.43 20.643 14.5971C20.5887 14.7642 20.4713 14.9035 20.3158 14.9852Z" fill="#F8FAFC"/>
    <path d="M15.8309 6.63269C15.5727 6.37449 15.154 6.37449 14.8958 6.63269L6.16863 15.36C5.91042 15.6182 5.91042 16.0368 6.16863 16.295C6.22995 16.3565 6.30283 16.4053 6.38306 16.4385C6.46329 16.4717 6.54929 16.4888 6.63613 16.4887C6.80532 16.4887 6.97459 16.4242 7.10364 16.295L15.8309 7.5678C16.0892 7.30955 16.0891 6.89094 15.8309 6.63269ZM8.35503 5.51318C7.01825 5.51318 5.93066 6.60077 5.93066 7.93755C5.93066 9.27434 7.01825 10.3619 8.35503 10.3619C9.69182 10.3619 10.7794 9.27434 10.7794 7.93755C10.7794 6.60077 9.69182 5.51318 8.35503 5.51318ZM8.35503 9.03951C7.74741 9.03951 7.25307 8.54518 7.25307 7.93751C7.25307 7.32988 7.74741 6.83555 8.35503 6.83555C8.96266 6.83555 9.45703 7.32988 9.45703 7.93751C9.45699 8.54518 8.96266 9.03951 8.35503 9.03951ZM13.6445 12.5658C12.3077 12.5658 11.2201 13.6534 11.2201 14.9902C11.2201 16.327 12.3077 17.4146 13.6445 17.4146C14.9813 17.4146 16.0689 16.327 16.0689 14.9902C16.0689 13.6534 14.9813 12.5658 13.6445 12.5658ZM13.6445 16.0922C13.0369 16.0922 12.5425 15.5978 12.5425 14.9902C12.5425 14.3826 13.0368 13.8882 13.6445 13.8882C14.2521 13.8882 14.7465 14.3826 14.7465 14.9902C14.7465 15.5978 14.2521 16.0922 13.6445 16.0922Z" fill="#F8FAFC"/>
</svg>
