<svg width="18" height="18" viewBox="0 0 18 18" fill="none" xmlns="http://www.w3.org/2000/svg">
    <path d="M16.37 2.50657H13.99C14.0817 2.16998 14.0828 1.81514 13.9932 1.47798C13.9037 1.14082 13.7266 0.83331 13.48 0.586573C13.1023 0.215854 12.5942 0.00816107 12.065 0.00816107C11.5358 0.00816107 11.0277 0.215854 10.65 0.586573L8.935 2.30557L7.225 0.586573C7.03925 0.40062 6.81868 0.253102 6.57588 0.152454C6.33308 0.0518053 6.07283 0 5.81 0C5.54717 0 5.28692 0.0518053 5.04412 0.152454C4.80132 0.253102 4.58075 0.40062 4.395 0.586573C4.14839 0.83331 3.97134 1.14082 3.88178 1.47798C3.79222 1.81514 3.79333 2.16998 3.885 2.50657H1.5C1.10218 2.50657 0.720644 2.66461 0.43934 2.94591C0.158035 3.22722 0 3.60875 0 4.00657V5.00657C0.000553976 5.30359 0.0898641 5.59366 0.256465 5.83956C0.423067 6.08545 0.659356 6.27594 0.935 6.38657V15.3766C0.936847 16.039 1.20083 16.6739 1.66927 17.1423C2.13771 17.6107 2.77253 17.8747 3.435 17.8766H14.435C15.098 17.8766 15.7339 17.6132 16.2028 17.1443C16.6716 16.6755 16.935 16.0396 16.935 15.3766V6.39657C17.2116 6.28383 17.4485 6.09159 17.6159 5.84417C17.7832 5.59674 17.8734 5.30526 17.875 5.00657V4.00657C17.875 3.80917 17.836 3.61371 17.7603 3.43139C17.6846 3.24908 17.5737 3.08349 17.4339 2.94414C17.2941 2.80479 17.1281 2.6944 16.9456 2.61932C16.763 2.54423 16.5674 2.50592 16.37 2.50657ZM5.1 1.29557C5.28736 1.10932 5.54081 1.00478 5.805 1.00478C6.06919 1.00478 6.32264 1.10932 6.51 1.29557L7.72 2.50657H4.95C4.83614 2.31697 4.78905 2.0947 4.81624 1.87522C4.84343 1.65573 4.94332 1.45167 5.1 1.29557ZM7.935 16.8766H3.435C3.03718 16.8766 2.65564 16.7185 2.37434 16.4372C2.09303 16.1559 1.935 15.7744 1.935 15.3766V6.50657H7.935V16.8766ZM7.935 5.50657H1.5C1.36739 5.50657 1.24021 5.4539 1.14645 5.36013C1.05268 5.26636 1 5.13918 1 5.00657V4.00657C1 3.87397 1.05268 3.74679 1.14645 3.65302C1.24021 3.55925 1.36739 3.50657 1.5 3.50657H7.935V5.50657ZM11.365 1.29557C11.537 1.12458 11.7653 1.02192 12.0073 1.00672C12.2494 0.991516 12.4887 1.0648 12.6808 1.21293C12.8728 1.36107 13.0045 1.57394 13.0513 1.81193C13.098 2.04991 13.0567 2.29679 12.935 2.50657H10.155L11.365 1.29557ZM15.935 15.3766C15.935 15.7744 15.777 16.1559 15.4957 16.4372C15.2144 16.7185 14.8328 16.8766 14.435 16.8766H9.935V6.50657H15.935V15.3766ZM16.875 5.00657C16.875 5.13918 16.8223 5.26636 16.7286 5.36013C16.6348 5.4539 16.5076 5.50657 16.375 5.50657H9.935V3.50657H16.375C16.5076 3.50657 16.6348 3.55925 16.7286 3.65302C16.8223 3.74679 16.875 3.87397 16.875 4.00657V5.00657Z" fill="#A19BAA"/>
</svg>
