<svg width="1094" height="1053" viewBox="0 0 1094 1053" fill="none" xmlns="http://www.w3.org/2000/svg">
<path d="M572.78 38.1999C572.67 38.1999 572.59 38.2299 572.49 38.2499C574.52 38.0399 576.53 37.8499 578.56 37.6599C576.63 37.8199 574.71 38.0099 572.78 38.1899V38.1999ZM850.79 93.6399C846.27 91.0699 841.7 88.5899 837.07 86.1799C833.33 84.2499 829.58 82.3599 825.78 80.5599C824.47 79.9199 823.16 79.2999 821.85 78.6899C820.46 78.0199 819.07 77.3799 817.65 76.7399C816.07 76.0199 814.49 75.3199 812.89 74.6299C811.93 74.1799 810.94 73.7499 809.95 73.3499C808.88 72.8699 807.81 72.4099 806.71 71.9599C796.01 67.4399 785.1 63.3499 774 59.6899C771.99 59.0199 769.96 58.3499 767.93 57.7399C766.25 57.1799 764.53 56.6399 762.8 56.1399C760.77 55.5199 758.71 54.9099 756.62 54.3199C754.86 53.8099 753.06 53.2999 751.27 52.8199C749.75 52.3899 748.22 51.9899 746.7 51.5899C744.67 51.0299 742.64 50.52 740.58 50.04C738.52 49.51 736.44 48.9999 734.35 48.5199C729.48 47.3699 724.56 46.2999 719.62 45.3099C717.94 44.9599 716.25 44.6099 714.54 44.3199C713.98 44.1899 713.42 44.0799 712.86 43.9999C711.12 43.6799 709.41 43.3599 707.67 43.0599C701.89 42.0399 696.12 41.1299 690.29 40.3099C689.94 40.2799 689.59 40.2299 689.22 40.1799C687.35 39.9099 685.48 39.6699 683.6 39.4599C681.59 39.1899 679.56 38.9499 677.53 38.7399C673.44 38.2899 669.35 37.8799 665.26 37.5399C663.66 37.3799 662.08 37.2499 660.47 37.1399C656.46 36.8199 652.45 36.5799 648.41 36.3899C646.83 36.2799 645.23 36.1999 643.62 36.1499C642.2 36.0699 640.76 36.0199 639.34 35.9899C637.23 35.9099 635.11 35.8599 633.03 35.7999C631.93 35.7699 630.84 35.7499 629.74 35.7499C624.63 35.6699 619.52 35.6999 614.42 35.7799C611.64 35.8099 608.86 35.8899 606.08 35.9899C603.3 36.0699 600.52 36.1799 597.74 36.3399C594.83 36.4999 591.88 36.6599 588.97 36.8499C587.39 36.9599 585.79 37.0899 584.21 37.2199C583.81 37.2499 583.43 37.2699 583.03 37.2999C582.82 37.3299 582.6 37.3299 582.39 37.3499C582.34 37.3499 582.28 37.3499 582.26 37.3799C581.03 37.4599 579.83 37.5699 578.62 37.6999C580.65 37.5099 582.71 37.3499 584.74 37.1899C682.05 29.8599 783.24 51.7099 864.19 101.74L864.22 101.66C859.81 98.91 855.31 96.2299 850.8 93.6599L850.79 93.6399Z" fill="#A81422"/>
<path d="M865.28 102.38C864.91 102.17 864.56 101.93 864.18 101.71L864.21 101.63C864.58 101.87 864.93 102.11 865.28 102.38Z" fill="#A81422"/>
<path d="M864.22 101.63C859.81 98.88 855.31 96.2 850.8 93.63C846.28 91.06 841.71 88.58 837.08 86.17C833.34 84.24 829.59 82.35 825.8 80.55C824.49 79.91 823.18 79.29 821.87 78.68C820.48 78.01 819.09 77.37 817.67 76.73C816.09 76.01 814.51 75.31 812.91 74.62C811.95 74.17 810.96 73.74 809.97 73.34C808.9 72.86 807.83 72.4 806.73 71.95C796.03 67.43 785.12 63.34 774.02 59.68C772.01 59.01 769.98 58.34 767.95 57.73C766.26 57.17 764.55 56.63 762.82 56.13C760.79 55.51 758.73 54.9 756.64 54.31C754.87 53.8 753.08 53.29 751.29 52.81C749.77 52.38 748.24 51.98 746.72 51.58C744.69 51.02 742.66 50.51 740.6 50.03C738.54 49.5 736.45 48.99 734.37 48.51C729.5 47.36 724.58 46.29 719.64 45.3C717.96 44.95 716.27 44.6 714.56 44.31C714 44.18 713.44 44.07 712.88 43.99C711.14 43.64 709.43 43.32 707.69 43.05C701.91 42.01 696.14 41.1 690.31 40.3C689.96 40.27 689.61 40.22 689.24 40.17C687.37 39.9 685.5 39.66 683.62 39.45C681.61 39.18 679.58 38.94 677.55 38.73C673.46 38.28 669.37 37.87 665.28 37.53C663.68 37.37 662.1 37.24 660.49 37.13C656.48 36.81 652.47 36.57 648.43 36.38C646.85 36.27 645.25 36.19 643.64 36.14C642.22 36.06 640.78 36.01 639.36 35.98C637.25 35.9 635.13 35.85 633.05 35.79C631.95 35.76 630.86 35.74 629.76 35.74C624.65 35.66 619.54 35.69 614.44 35.77C611.66 35.8 608.88 35.88 606.1 35.98C603.32 36.06 600.54 36.17 597.76 36.33C594.85 36.49 591.9 36.65 588.99 36.84C587.57 36.95 586.18 37.05 584.76 37.19C584.57 37.19 584.41 37.19 584.22 37.22C583.82 37.22 583.42 37.27 583.04 37.3C582.83 37.33 582.61 37.33 582.4 37.35C582.35 37.35 582.29 37.35 582.27 37.38C581.04 37.46 579.84 37.57 578.63 37.7H578.58C576.65 37.86 574.73 38.05 572.8 38.23C570.05 38.5 567.29 38.82 564.54 39.14C561.79 39.49 559.03 39.84 556.28 40.21C552.72 40.69 549.19 41.23 545.66 41.76C542.02 42.35 538.41 42.96 534.8 43.63C491.02 51.63 448.8 65.75 410.32 85.94C301.96 142.85 211.82 234.12 173.74 352.34C131.25 484.18 164.25 629.87 253.46 722.39C302.93 773.68 369.68 808.66 450.41 815.83C491.67 819.49 533.28 815.03 572.57 802.97C605.49 792.83 636.75 777.38 664.8 756.84L665.47 754.62C711.17 722.34 739.49 667.66 747.01 612.67C751.42 580.15 748 547.79 737.14 519.23L741.26 505.7C773.67 554.82 776.32 623.58 760.25 677.94C743.03 736.05 707.11 786.19 660.72 825.21C576.43 896.08 457.56 930.2 353.3 908.62C236.73 884.5 134.15 786.01 91.3901 681.45C87.6701 672.41 84.4101 663.29 81.6301 654.2C14.4001 433.93 114.09 193.81 305.38 76.39C324.39 64.73 344.13 54.27 364.43 45.1C370.45 42.37 376.57 39.75 382.72 37.24C384.62 36.46 386.54 35.69 388.47 34.91C415.18 24.4 443.08 15.79 471.26 9.37C473.29 8.92 475.3 8.46 477.33 8.03C477.36 8.03 477.38 8 477.44 8C480.62 7.3 483.83 6.65999 487.04 6.01999C496.77 4.11999 508.27 2.14 518.09 0.75C527.58 0.24 537.13 0 546.76 0C665.15 0 774.79 37.65 864.26 101.65L864.22 101.63Z" fill="url(#paint0_linear_84_1858)"/>
<path d="M836.05 869.44C755.88 971.65 629.02 1043.21 494.37 1051.31C329.21 1061.26 189.22 984.43 100.87 863.18C100.58 862.78 100.25 862.35 99.99 861.92C59.77 805.07 30.17 740.16 13.99 670.16C13.32 667.25 12.68 664.33 12.06 661.42C4.14 624.44 0 586.03 0 546.7C0 254.39 229.42 15.66 518.01 0.73999C507.69 2.17999 497.34 3.94998 486.99 6.00998C483.78 6.64998 480.57 7.28999 477.39 7.98999C477.34 7.98999 477.31 8.01999 477.28 8.01999C475.25 8.44999 473.24 8.89999 471.21 9.35999C443 15.7 415.29 24.23 388.42 34.9C386.49 35.68 384.57 36.45 382.67 37.23C376.52 39.74 370.4 42.36 364.38 45.09C344.08 54.26 324.35 64.72 305.33 76.38C114.05 193.8 14.35 433.92 81.58 654.19C84.36 663.28 87.62 672.4 91.34 681.44C134.1 786 236.68 884.49 353.25 908.61C457.52 930.19 576.38 896.07 660.67 825.2C707.07 786.18 742.98 736.04 760.2 677.93C776.27 623.56 769.51 568.34 737.1 519.22C719.64 473.28 682.95 437.07 628.74 425.41C431.76 383.05 428.07 585.57 428.07 585.57C428.07 585.57 354.45 423.57 505.41 348.08C550.98 325.3 602.94 315.35 654.39 319.09C699.93 322.38 745.07 336.39 785.02 361.77C849.41 402.58 900.33 472.83 917.77 574.95C936.01 681.65 901.64 785.81 836.05 869.46V869.44Z" fill="url(#paint1_linear_84_1858)"/>
<path d="M1024.87 811.87C1063.08 699.13 1076.43 542.07 1028.24 419.86C991.66 327.09 917.45 257.94 828.91 217.61C756.07 184.37 673.54 170.65 594.33 179.29C594.12 179.32 593.93 179.34 593.71 179.37C407.67 199.99 259.17 370.15 290.75 560.92C300.27 618.28 325.25 671.98 367.47 712.6C434.48 777.07 553.35 809.99 640.77 769.02C649.46 764.93 657.7 760.12 665.43 754.58L664.76 756.8C636.71 777.34 605.45 792.79 572.53 802.93C533.25 814.99 491.64 819.46 450.37 815.79C369.64 808.62 302.89 773.65 253.42 722.35C164.21 629.82 131.21 484.14 173.7 352.3C211.78 234.07 301.93 142.81 410.28 85.9C448.76 65.71 490.99 51.59 534.76 43.59C538.37 42.92 541.98 42.3101 545.62 41.7201C549.15 41.1901 552.68 40.6501 556.24 40.1701C558.99 39.8001 561.75 39.4501 564.5 39.1001C567.15 38.8101 569.82 38.51 572.47 38.24C574.5 38.03 576.51 37.84 578.54 37.65H578.59C580.62 37.46 582.68 37.3 584.71 37.14C682.02 29.81 783.21 51.66 864.16 101.69C864.53 101.9 864.88 102.14 865.26 102.36C1003.38 201.57 1093.37 363.6 1093.37 546.67C1093.37 642.89 1068.53 733.3 1024.86 811.84L1024.87 811.87Z" fill="url(#paint2_linear_84_1858)"/>
<defs>
<linearGradient id="paint0_linear_84_1858" x1="469.15" y1="-1.85" x2="449.02" y2="915.78" gradientUnits="userSpaceOnUse">
<stop stop-color="#F05208"/>
<stop offset="0.43" stop-color="#FF9F0C"/>
<stop offset="0.98" stop-color="#EB3720"/>
</linearGradient>
<linearGradient id="paint1_linear_84_1858" x1="956.78" y1="1167.83" x2="86.6401" y2="180.84" gradientUnits="userSpaceOnUse">
<stop stop-color="#9A1226"/>
<stop offset="0.16" stop-color="#C61A1A"/>
<stop offset="0.27" stop-color="#F04307"/>
<stop offset="0.76" stop-color="#511026"/>
<stop offset="0.85" stop-color="#511026" stop-opacity="0.97"/>
<stop offset="0.9" stop-color="#511026" stop-opacity="0.88"/>
<stop offset="0.93" stop-color="#511026" stop-opacity="0.73"/>
<stop offset="0.95" stop-color="#511026" stop-opacity="0.5"/>
<stop offset="0.98" stop-color="#511026" stop-opacity="0.22"/>
<stop offset="0.99" stop-color="#511026" stop-opacity="0"/>
</linearGradient>
<linearGradient id="paint2_linear_84_1858" x1="155.32" y1="426.41" x2="1093.39" y2="426.41" gradientUnits="userSpaceOnUse">
<stop stop-color="#CA2219"/>
<stop offset="0.37" stop-color="#F55A07"/>
<stop offset="0.73" stop-color="#D8300B"/>
<stop offset="0.98" stop-color="#511026"/>
</linearGradient>
</defs>
</svg>
