<svg width="28" height="20" viewBox="0 0 28 20" fill="none" xmlns="http://www.w3.org/2000/svg">
    <path d="M27.338 7.93401L19.606 5.155L16.374 1.09701C16.093 0.753408 15.739 0.476694 15.3377 0.286947C14.9364 0.0971996 14.4979 -0.000819049 14.054 5.155e-06H6.058C5.569 1.35679e-05 5.08741 0.119556 4.65517 0.348225C4.22293 0.576894 3.85314 0.907757 3.578 1.31201L0.866 5.29501C0.30183 6.12427 9.63013e-05 7.10403 0 8.10701V16C0 16.2652 0.105357 16.5196 0.292893 16.7071C0.48043 16.8946 0.734784 17 1 17H3.142C3.35953 17.8582 3.85703 18.6194 4.55578 19.1632C5.25452 19.7069 6.11462 20.0021 7 20.0021C7.88538 20.0021 8.74548 19.7069 9.44422 19.1632C10.143 18.6194 10.6405 17.8582 10.858 17H17.142C17.3595 17.8582 17.857 18.6194 18.5558 19.1632C19.2545 19.7069 20.1146 20.0021 21 20.0021C21.8854 20.0021 22.7455 19.7069 23.4442 19.1632C24.143 18.6194 24.6405 17.8582 24.858 17H27C27.2652 17 27.5196 16.8946 27.7071 16.7071C27.8946 16.5196 28 16.2652 28 16V8.875C28 8.66908 27.9364 8.46819 27.8179 8.29977C27.6994 8.13134 27.5318 8.00361 27.338 7.93401ZM7 18C6.60444 18 6.21776 17.8827 5.88886 17.6629C5.55996 17.4432 5.30362 17.1308 5.15224 16.7654C5.00087 16.3999 4.96126 15.9978 5.03843 15.6098C5.1156 15.2219 5.30608 14.8655 5.58579 14.5858C5.86549 14.3061 6.22186 14.1156 6.60982 14.0384C6.99778 13.9613 7.39991 14.0009 7.76537 14.1522C8.13082 14.3036 8.44318 14.56 8.66294 14.8889C8.8827 15.2178 9 15.6044 9 16C8.99921 16.5302 8.78824 17.0384 8.41334 17.4133C8.03844 17.7882 7.53019 17.9992 7 18ZM21 18C20.6044 18 20.2178 17.8827 19.8889 17.6629C19.56 17.4432 19.3036 17.1308 19.1522 16.7654C19.0009 16.3999 18.9613 15.9978 19.0384 15.6098C19.1156 15.2219 19.3061 14.8655 19.5858 14.5858C19.8655 14.3061 20.2219 14.1156 20.6098 14.0384C20.9978 13.9613 21.3999 14.0009 21.7654 14.1522C22.1308 14.3036 22.4432 14.56 22.6629 14.8889C22.8827 15.2178 23 15.6044 23 16C22.9992 16.5302 22.7882 17.0384 22.4133 17.4133C22.0384 17.7882 21.5302 17.9992 21 18ZM26 15H24.858C24.6405 14.1418 24.143 13.3806 23.4442 12.8368C22.7455 12.2931 21.8854 11.9979 21 11.9979C20.1146 11.9979 19.2545 12.2931 18.5558 12.8368C17.857 13.3806 17.3595 14.1418 17.142 15H10.858C10.6405 14.1418 10.143 13.3806 9.44422 12.8368C8.74548 12.2931 7.88538 11.9979 7 11.9979C6.11462 11.9979 5.25452 12.2931 4.55578 12.8368C3.85703 13.3806 3.35953 14.1418 3.142 15H2V8.10701C2.00002 7.50491 2.1812 6.91674 2.52 6.419L5.231 2.438C5.32267 2.30309 5.44595 2.19264 5.5901 2.1163C5.73425 2.03995 5.89488 2.00003 6.058 2.00001H14.054C14.1995 2.00003 14.3433 2.03181 14.4752 2.09313C14.6072 2.15444 14.7241 2.24381 14.818 2.355L18.218 6.62301C18.3336 6.76815 18.4874 6.87825 18.662 6.94101L26 9.578V15Z" fill="#EF4444"/>
</svg>
