<svg width="482" height="326" viewBox="0 0 482 326" fill="none" xmlns="http://www.w3.org/2000/svg">
    <path d="M245.843 325.14C240.403 325.14 234.979 323.796 230.179 321.156L219.555 315.412C218.632 314.911 217.816 314.233 217.155 313.417C216.493 312.6 215.999 311.661 215.701 310.654C215.402 309.647 215.305 308.591 215.414 307.546C215.524 306.501 215.838 305.488 216.339 304.564C216.84 303.641 217.519 302.825 218.335 302.164C219.151 301.502 220.09 301.008 221.097 300.709C222.105 300.411 223.161 300.314 224.206 300.423C225.251 300.533 226.264 300.847 227.187 301.348L237.843 307.108C241.619 309.172 246.355 309.684 250.515 308.468C252.112 308.046 253.608 307.31 254.918 306.305C256.228 305.3 257.326 304.045 258.147 302.612C261.091 297.236 260.035 290.74 257.315 287.572C256.028 286.067 255.344 284.137 255.397 282.157C255.45 280.176 256.237 278.286 257.603 276.852C260.083 274.276 264.275 273.284 267.427 274.948L291.043 287.316C298.275 291.252 307.299 288.932 310.915 282.308C313.731 277.14 312.259 270.644 309.987 267.364L288.131 252.164C286.454 250.991 285.288 249.221 284.872 247.217C284.456 245.212 284.82 243.125 285.891 241.38C286.962 239.632 288.665 238.364 290.647 237.84C292.629 237.315 294.736 237.575 296.531 238.564L338.115 261.284C339.593 262.11 341.222 262.628 342.905 262.807C344.588 262.985 346.29 262.821 347.907 262.324C351.683 261.166 354.847 258.56 356.707 255.076C360.547 248.068 358.515 240.356 351.907 236.74L325.379 219.492C323.667 218.38 322.444 216.654 321.963 214.669C321.482 212.684 321.778 210.591 322.79 208.817C323.803 207.043 325.455 205.724 327.409 205.13C329.363 204.535 331.471 204.711 333.299 205.62L387.363 232.452C394.227 236.18 402.387 233.476 406.275 226.404C408.009 223.03 408.361 219.113 407.256 215.484C406.15 211.855 403.676 208.799 400.355 206.964C399.405 206.477 398.562 205.806 397.876 204.988C397.189 204.17 396.674 203.224 396.359 202.204C396.044 201.184 395.936 200.111 396.042 199.049C396.148 197.987 396.466 196.956 396.977 196.019C397.487 195.081 398.18 194.255 399.014 193.59C399.849 192.924 400.808 192.432 401.836 192.143C402.864 191.854 403.939 191.773 404.998 191.906C406.057 192.039 407.079 192.382 408.003 192.916C422.499 200.82 428.131 219.668 420.323 234.068C412.131 249.012 394.451 254.548 379.987 246.644L374.355 243.86C375.227 250.384 373.959 257.015 370.739 262.756C366.838 269.957 360.246 275.324 352.403 277.684C348.765 278.762 344.949 279.109 341.176 278.706C337.403 278.302 333.747 277.155 330.419 275.332L328.339 274.212C328.643 279.444 327.667 284.932 324.915 289.972C317.139 304.196 298.179 309.46 283.459 301.412L275.811 297.412C275.567 301.916 274.327 306.31 272.179 310.276C270.355 313.557 267.898 316.444 264.951 318.77C262.005 321.096 258.626 322.815 255.011 323.828C252.034 324.701 248.946 325.143 245.843 325.14ZM80.3554 180.036C79.1038 180.038 77.8698 179.742 76.7554 179.172L50.1634 165.764C49.224 165.294 48.3868 164.643 47.7002 163.847C47.0135 163.052 46.4908 162.129 46.1621 161.132C45.8335 160.134 45.7054 159.081 45.7853 158.033C45.8651 156.986 46.1513 155.965 46.6274 155.028C47.0944 154.086 47.744 153.246 48.5385 152.556C49.3331 151.867 50.2567 151.343 51.2556 151.014C52.2546 150.685 53.309 150.558 54.3575 150.64C55.406 150.722 56.4278 151.012 57.3634 151.492L83.9554 164.9C85.5871 165.692 86.9 167.016 87.677 168.655C88.4541 170.294 88.6489 172.148 88.2293 173.913C87.8096 175.677 86.8007 177.246 85.369 178.359C83.9374 179.472 82.1688 180.064 80.3554 180.036ZM144.227 75.8121C143.701 75.8135 143.175 75.7599 142.659 75.6521L88.3554 64.9161C84.0194 64.0521 81.2034 59.8601 82.0674 55.5241C82.9314 51.1881 87.1394 48.3081 91.4594 49.2361L145.763 59.9721C147.736 60.3284 149.502 61.4134 150.711 63.0117C151.92 64.6101 152.484 66.6047 152.291 68.5996C152.097 70.5945 151.161 72.4436 149.667 73.7798C148.173 75.116 146.231 75.8415 144.227 75.8121Z" fill="black"/>
    <path d="M403.971 207.844C402.628 207.844 401.307 207.503 400.131 206.852L347.699 178.164L276.227 133.812C275.332 133.262 274.554 132.54 273.938 131.689C273.322 130.838 272.879 129.874 272.636 128.852C272.392 127.83 272.352 126.769 272.518 125.732C272.684 124.694 273.053 123.699 273.603 122.804C274.154 121.909 274.875 121.131 275.726 120.515C276.578 119.899 277.542 119.456 278.564 119.212C279.586 118.969 280.646 118.929 281.684 119.095C282.722 119.261 283.716 119.63 284.611 120.18L355.731 164.34L399.619 188.34C402.371 178.756 402.163 171.7 402.147 171.62C402.073 170.012 402.484 168.419 403.329 167.049C404.174 165.679 405.413 164.595 406.883 163.94L423.427 156.58C424.388 156.154 425.422 155.921 426.473 155.894C427.523 155.867 428.568 156.048 429.549 156.425C430.53 156.803 431.426 157.369 432.188 158.093C432.949 158.817 433.561 159.684 433.987 160.644C434.414 161.605 434.647 162.639 434.674 163.69C434.7 164.74 434.52 165.785 434.142 166.766C433.765 167.747 433.198 168.643 432.474 169.405C431.75 170.166 430.884 170.778 429.923 171.204L417.955 176.532C417.203 185.668 414.96 194.618 411.315 203.028C410.694 204.46 409.668 205.678 408.363 206.534C407.058 207.39 405.532 207.845 403.971 207.844Z" fill="black"/>
    <path d="M177.94 165.172C166.692 165.172 155.844 160.276 146.98 151.108C145.982 150.073 145.281 148.789 144.949 147.39C144.616 145.991 144.666 144.529 145.092 143.156C147.812 134.404 150.756 126.228 153.476 118.66C157.86 106.436 161.668 95.8921 162.804 87.7481C162.958 86.6343 163.346 85.5656 163.941 84.6117C164.537 83.6578 165.327 82.8402 166.26 82.2121L174.468 76.6121C192.98 63.8761 223.972 42.5321 240.82 35.5881C250.9 31.4441 304.18 41.7161 347.092 51.0921C348.226 51.3324 349.293 51.8245 350.212 52.5321C352.036 53.9081 353.716 55.3321 355.3 56.7881L385.972 48.3401C386.984 48.0607 388.042 47.9834 389.085 48.1128C390.127 48.2422 391.134 48.5757 392.048 49.0942C392.962 49.6127 393.764 50.3061 394.41 51.1349C395.056 51.9636 395.532 52.9114 395.812 53.9241C396.091 54.9369 396.168 55.9948 396.039 57.0374C395.91 58.08 395.576 59.0869 395.058 60.0006C394.539 60.9143 393.846 61.717 393.017 62.3627C392.188 63.0085 391.24 63.4847 390.228 63.7641L355.172 73.4281C353.799 73.8118 352.349 73.8197 350.973 73.451C349.596 73.0822 348.344 72.3504 347.348 71.3321C345.619 69.5718 343.798 67.9054 341.892 66.3401C300.42 57.3321 253.86 49.1081 246.404 50.5481C231.636 56.6761 200.34 78.2281 183.524 89.7961L178.036 93.5401C176.292 102.468 172.66 112.58 168.532 124.084C166.388 130.052 164.1 136.404 161.892 143.124C169.076 148.916 175.988 149.556 180.708 149.012C187.764 148.164 194.324 143.892 197.828 137.892C200.58 133.156 204.292 123.732 206.836 114.964C207.27 113.473 208.129 112.14 209.308 111.128C210.487 110.117 211.935 109.47 213.476 109.268C218.372 108.612 237.844 104.5 249.364 101.764C250.386 101.521 251.446 101.482 252.483 101.649C253.52 101.816 254.515 102.186 255.409 102.737C256.303 103.288 257.081 104.01 257.696 104.862C258.311 105.714 258.753 106.678 258.996 107.7C259.238 108.722 259.277 109.782 259.11 110.82C258.943 111.857 258.574 112.851 258.022 113.746C257.471 114.64 256.749 115.417 255.898 116.032C255.046 116.648 254.082 117.089 253.06 117.332C244.308 119.412 229.396 122.66 220.724 124.276C218.388 131.476 215.044 140.148 211.668 145.94C208.203 151.802 203.27 156.659 197.355 160.031C191.441 163.404 184.748 165.176 177.94 165.172ZM202.692 324.084C195.588 324.084 188.932 321.316 183.94 316.308L178.724 311.044C176.278 308.582 174.344 305.66 173.031 302.447C171.719 299.235 171.054 295.794 171.076 292.324C171.092 285.236 173.86 278.612 178.868 273.652L189.412 263.284C199.396 253.396 216.916 253.476 226.804 263.492L231.988 268.692C242.26 279.092 242.18 295.876 231.844 306.116L221.3 316.484C216.34 321.364 209.732 324.084 202.692 324.084ZM208.02 271.652C205.265 271.64 202.618 272.722 200.66 274.66L190.132 285.012C189.167 285.976 188.402 287.121 187.88 288.381C187.358 289.641 187.09 290.992 187.092 292.356C187.092 295.172 188.148 297.796 190.1 299.764L195.3 305.012C197.292 306.902 199.931 307.959 202.677 307.965C205.423 307.971 208.067 306.926 210.068 305.044L220.596 294.692C222.551 292.733 223.65 290.079 223.653 287.311C223.656 284.544 222.563 281.887 220.612 279.924L215.444 274.74C214.476 273.754 213.321 272.973 212.045 272.442C210.77 271.912 209.401 271.643 208.02 271.652ZM92.0516 228.18C84.9476 228.18 78.2756 225.412 73.2836 220.388L68.0836 215.156C63.1529 210.171 60.3995 203.434 60.4265 196.422C60.4535 189.411 63.2587 182.695 68.2276 177.748L78.7716 167.38C88.7556 157.508 106.244 157.556 116.148 167.556L121.348 172.804C126.308 177.812 129.012 184.452 128.98 191.54C128.973 195.011 128.28 198.447 126.94 201.649C125.6 204.85 123.64 207.755 121.172 210.196L110.644 220.548C108.199 222.981 105.299 224.907 102.108 226.217C98.9178 227.527 95.5003 228.194 92.0516 228.18ZM97.3796 175.748C94.6205 175.739 91.9695 176.82 90.0036 178.756L79.4756 189.108C77.5221 191.067 76.4224 193.719 76.4164 196.486C76.4105 199.252 77.4986 201.909 79.4436 203.876L84.6276 209.092C86.6118 210.994 89.2505 212.061 91.9988 212.073C94.7471 212.085 97.395 211.041 99.3956 209.156L109.94 198.788C111.892 196.868 112.964 194.26 112.98 191.46C112.996 188.66 111.94 186.036 109.988 184.068L104.788 178.82C103.821 177.838 102.668 177.06 101.395 176.533C100.123 176.005 98.7572 175.738 97.3796 175.748Z" fill="black"/>
    <path d="M119.54 270.004C112.42 270.004 105.748 267.236 100.772 262.18L95.5717 256.948C93.1228 254.497 91.1844 251.585 89.8689 248.38C88.5533 245.175 87.8867 241.741 87.9077 238.276C87.9061 234.795 88.597 231.349 89.9403 228.138C91.2835 224.927 93.2522 222.015 95.7317 219.572L116.676 198.788C126.676 188.868 144.132 188.948 154.068 198.948L159.268 204.212C164.228 209.204 166.932 215.844 166.9 222.916C166.9 226.392 166.208 229.833 164.865 233.039C163.521 236.244 161.554 239.151 159.076 241.588L138.148 262.34C133.188 267.284 126.564 270.004 119.54 270.004ZM135.284 207.14C133.921 207.13 132.571 207.391 131.31 207.908C130.049 208.424 128.904 209.186 127.94 210.148L106.996 230.932C106.02 231.893 105.245 233.037 104.713 234.299C104.181 235.56 103.903 236.914 103.895 238.284C103.888 239.653 104.151 241.01 104.669 242.277C105.188 243.544 105.951 244.697 106.916 245.668L112.132 250.916C114.115 252.813 116.75 253.877 119.495 253.889C122.239 253.901 124.884 252.86 126.884 250.98L147.828 230.212C148.807 229.25 149.583 228.102 150.11 226.835C150.638 225.568 150.906 224.209 150.9 222.836C150.917 221.472 150.662 220.118 150.148 218.854C149.634 217.59 148.872 216.441 147.908 215.476L142.708 210.212C141.734 209.236 140.577 208.461 139.303 207.934C138.029 207.407 136.663 207.137 135.284 207.14Z" fill="black"/>
    <path d="M161.123 297.044C157.629 297.056 154.168 296.371 150.942 295.027C147.717 293.684 144.792 291.709 142.339 289.22L137.155 283.972C134.707 281.518 132.769 278.603 131.453 275.395C130.138 272.188 129.471 268.751 129.491 265.284C129.507 258.196 132.275 251.572 137.283 246.612L153.043 231.044C163.043 221.14 180.531 221.22 190.435 231.236L195.619 236.468C205.859 246.804 205.779 263.572 195.475 273.844L179.731 289.412C174.771 294.324 168.163 297.044 161.123 297.044ZM171.651 239.396C170.29 239.39 168.94 239.652 167.68 240.169C166.42 240.685 165.274 241.444 164.307 242.404L148.547 257.972C146.579 259.924 145.507 262.532 145.491 265.332C145.475 268.132 146.547 270.74 148.499 272.692L153.715 277.956C155.697 279.855 158.331 280.922 161.076 280.937C163.82 280.952 166.466 279.914 168.467 278.036L184.211 262.468C186.167 260.511 187.27 257.861 187.279 255.094C187.288 252.328 186.202 249.67 184.259 247.7L179.075 242.468C178.106 241.486 176.95 240.708 175.675 240.18C174.4 239.652 173.031 239.386 171.651 239.396ZM436.723 198.82C435.067 198.817 433.452 198.3 432.103 197.339C430.753 196.379 429.734 195.024 429.187 193.46L377.539 45.9243C376.86 43.9802 376.957 41.8492 377.809 39.9746C378.662 38.1001 380.204 36.6264 382.115 35.8603L469.027 1.02826C470.986 0.290068 473.156 0.348749 475.071 1.19172C476.987 2.0347 478.496 3.59482 479.275 5.53749C480.053 7.48015 480.04 9.65063 479.237 11.5834C478.434 13.5162 476.906 15.0573 474.979 15.8763L395.155 47.8603L441.555 180.436L470.627 169.476C471.611 169.106 472.657 168.934 473.707 168.969C474.757 169.003 475.79 169.244 476.747 169.678C477.704 170.112 478.566 170.73 479.284 171.497C480.002 172.264 480.562 173.165 480.931 174.148C481.301 175.132 481.474 176.178 481.439 177.228C481.404 178.278 481.163 179.311 480.729 180.268C480.296 181.225 479.678 182.087 478.911 182.805C478.144 183.523 477.243 184.082 476.259 184.452L439.523 198.292C438.632 198.644 437.682 198.823 436.723 198.82ZM39.7315 198.308C38.8663 198.311 38.0067 198.17 37.1875 197.892L5.55547 187.3C4.54674 186.977 3.61235 186.456 2.80653 185.768C2.00072 185.08 1.33952 184.239 0.861334 183.294C0.383143 182.349 0.0974775 181.318 0.0209178 180.261C-0.0556418 179.204 0.0784285 178.143 0.415348 177.139C0.752267 176.134 1.28532 175.207 1.98358 174.41C2.68184 173.613 3.53139 172.963 4.48292 172.497C5.43445 172.032 6.46901 171.76 7.52656 171.697C8.58411 171.634 9.64358 171.782 10.6435 172.132L34.7875 180.212L81.3475 47.2203L6.01947 15.4763C5.01574 15.094 4.09925 14.5136 3.32465 13.7696C2.55005 13.0255 1.9332 12.1332 1.51088 11.1456C1.08856 10.1581 0.869418 9.09563 0.86652 8.02159C0.863622 6.94754 1.07703 5.88391 1.49401 4.89411C1.911 3.90431 2.52302 3.00861 3.29359 2.26042C4.06417 1.51222 4.97751 0.926852 5.97916 0.539211C6.98082 0.15157 8.05028 -0.0304029 9.12377 0.00413839C10.1973 0.0386797 11.2528 0.289029 12.2275 0.740261L94.4675 35.4123C96.3418 36.2052 97.8444 37.6814 98.6705 39.5414C99.4965 41.4014 99.5841 43.506 98.9155 45.4283L47.2675 192.964C46.7202 194.526 45.701 195.88 44.3509 196.837C43.0008 197.794 41.3866 198.308 39.7315 198.308Z" fill="black"/>
</svg>
