<svg width="19" height="19" viewBox="0 0 19 19" fill="none" xmlns="http://www.w3.org/2000/svg">
    <path d="M13.6686 0.211078C13.8362 0.227011 13.9085 0.430484 13.7894 0.549512L5.46935 8.86961C5.37512 8.96383 5.3077 9.08146 5.27403 9.21039L4.27403 13.0388C4.20674 13.2964 4.28108 13.5704 4.46935 13.7587C4.65763 13.947 4.93161 14.0213 5.18922 13.954L9.01765 12.954C9.14658 12.9203 9.26421 12.8529 9.35844 12.7587L17.7964 4.32077C17.9148 4.20238 18.1172 4.27321 18.1346 4.43972C18.4862 7.78889 18.4663 11.1672 18.075 14.5131C17.8522 16.4181 16.321 17.9139 14.4226 18.1261C10.9744 18.5115 7.40974 18.5115 3.96161 18.1261C2.06322 17.9139 0.532024 16.4181 0.309211 14.5131C-0.10307 10.9881 -0.10307 7.42704 0.309211 3.90204C0.532024 1.99699 2.06322 0.501208 3.96162 0.289034C7.15901 -0.0683218 10.4566 -0.0943069 13.6686 0.211078Z" fill="black" fill-opacity="0.6"/>
    <path d="M15.0154 1.44484C15.113 1.3474 15.2711 1.3474 15.3687 1.44484L16.7831 2.8592C16.8807 2.95683 16.8807 3.11512 16.7831 3.21275L8.48964 11.5062C8.45839 11.5374 8.41875 11.56 8.37604 11.5713L6.46163 12.0713C6.27699 12.1194 6.10884 11.9508 6.15676 11.7662L6.65676 9.852C6.66799 9.80903 6.69047 9.76981 6.72187 9.73841L15.0154 1.44484Z" fill="black" fill-opacity="0.6"/>
</svg>
