<svg width="36" height="36" viewBox="0 0 36 36" fill="none" xmlns="http://www.w3.org/2000/svg">
    <circle cx="18" cy="18" r="17.122" stroke="white" stroke-width="1.7561"/>
    <path d="M26.2763 12.8369C26.1872 12.6223 26.0167 12.4518 25.8022 12.3627C25.6966 12.3177 25.5833 12.2939 25.4685 12.2925H21.0783C20.8454 12.2925 20.6221 12.385 20.4574 12.5497C20.2928 12.7143 20.2002 12.9377 20.2002 13.1705C20.2002 13.4034 20.2928 13.6267 20.4574 13.7914C20.6221 13.9561 20.8454 14.0486 21.0783 14.0486H23.3524L18.4441 18.9569L15.5554 16.0593C15.4737 15.977 15.3766 15.9117 15.2696 15.8671C15.1626 15.8225 15.0479 15.7996 14.932 15.7996C14.816 15.7996 14.7013 15.8225 14.5943 15.8671C14.4873 15.9117 14.3902 15.977 14.3085 16.0593L9.04024 21.3276C8.95794 21.4092 8.89262 21.5063 8.84805 21.6133C8.80347 21.7203 8.78052 21.8351 8.78052 21.951C8.78052 22.0669 8.80347 22.1817 8.84805 22.2887C8.89262 22.3957 8.95794 22.4928 9.04024 22.5744C9.12187 22.6567 9.21898 22.7221 9.32598 22.7666C9.43298 22.8112 9.54774 22.8342 9.66366 22.8342C9.77957 22.8342 9.89434 22.8112 10.0013 22.7666C10.1083 22.7221 10.2054 22.6567 10.2871 22.5744L14.932 17.9208L17.8207 20.8183C17.9024 20.9006 17.9995 20.966 18.1065 21.0105C18.2135 21.0551 18.3282 21.0781 18.4441 21.0781C18.5601 21.0781 18.6748 21.0551 18.7818 21.0105C18.8888 20.966 18.9859 20.9006 19.0676 20.8183L24.5905 15.2866V17.5608C24.5905 17.7936 24.683 18.017 24.8477 18.1816C25.0123 18.3463 25.2357 18.4388 25.4685 18.4388C25.7014 18.4388 25.9247 18.3463 26.0894 18.1816C26.2541 18.017 26.3466 17.7936 26.3466 17.5608V13.1705C26.3452 13.0558 26.3213 12.9424 26.2763 12.8369Z" fill="white"/>
</svg>
