<svg width="24" height="22" viewBox="0 0 24 22" fill="none" xmlns="http://www.w3.org/2000/svg">
    <path fill-rule="evenodd" clip-rule="evenodd" d="M23.4766 6.37583L22.5208 6.00796C22.3818 5.49782 22.1785 5.00742 21.9159 4.54854L22.3318 3.61197C22.3632 3.5413 22.3724 3.46278 22.3583 3.38677C22.3442 3.31075 22.3073 3.24079 22.2526 3.18612L20.9356 1.86909C20.8809 1.81442 20.811 1.77759 20.7349 1.76346C20.6589 1.74933 20.5804 1.75856 20.5098 1.78994L19.5729 2.20602C19.1142 1.94347 18.6239 1.74023 18.114 1.60117L17.746 0.645173C17.7182 0.573009 17.6692 0.510953 17.6055 0.467188C17.5418 0.423423 17.4663 0.400003 17.3889 0.400017H15.5263C15.449 0.400017 15.3735 0.423441 15.3098 0.467205C15.246 0.510968 15.1971 0.573016 15.1693 0.645173L14.8013 1.60122C14.2913 1.74026 13.8011 1.94351 13.3423 2.20607L12.4055 1.78999C12.3348 1.75858 12.2563 1.74934 12.1802 1.76347C12.1042 1.7776 12.0343 1.81444 11.9796 1.86914L10.6625 3.18622C10.6079 3.2409 10.571 3.31085 10.5569 3.38687C10.5428 3.46289 10.552 3.5414 10.5834 3.61206L10.9995 4.54878C10.7369 5.00755 10.5336 5.49784 10.3946 6.00786L9.43871 6.37583C9.36655 6.40361 9.3045 6.4526 9.26074 6.51634C9.21698 6.58008 9.19355 6.65558 9.19355 6.7329V8.59549C9.19355 8.67281 9.21698 8.74831 9.26074 8.81205C9.3045 8.87579 9.36655 8.92478 9.43871 8.95256L10.3944 9.32044C10.5335 9.83055 10.7368 10.3209 10.9994 10.7798L10.5834 11.7163C10.552 11.787 10.5428 11.8655 10.5569 11.9415C10.571 12.0175 10.6079 12.0875 10.6625 12.1422L11.9796 13.4593C12.0343 13.5139 12.1042 13.5508 12.1803 13.5649C12.2563 13.579 12.3348 13.5698 12.4055 13.5384L13.3424 13.1223C13.8011 13.3849 14.2913 13.5881 14.8013 13.7271L15.1693 14.6831C15.197 14.7553 15.246 14.8173 15.3098 14.8611C15.3735 14.9049 15.449 14.9283 15.5263 14.9283H17.3889C17.4662 14.9283 17.5418 14.9049 17.6055 14.8611C17.6692 14.8173 17.7182 14.7553 17.746 14.6831L18.1139 13.7274C18.624 13.5883 19.1144 13.3851 19.5733 13.1224L20.5098 13.5384C20.5805 13.5697 20.659 13.579 20.735 13.5649C20.811 13.5507 20.881 13.5139 20.9357 13.4593L22.2527 12.1422C22.3074 12.0875 22.3442 12.0175 22.3583 11.9415C22.3724 11.8655 22.3632 11.787 22.3318 11.7163L21.9157 10.7794C22.1783 10.3207 22.3815 9.83047 22.5205 9.32053L23.4766 8.95256C23.5487 8.92478 23.6108 8.87579 23.6545 8.81205C23.6983 8.74831 23.7217 8.67281 23.7217 8.59549V6.7329C23.7217 6.65558 23.6983 6.58008 23.6545 6.51634C23.6108 6.4526 23.5487 6.40361 23.4766 6.37583ZM22.9565 8.33278L22.0612 8.67737C22.0032 8.69967 21.9516 8.73578 21.9107 8.78257C21.8698 8.82935 21.8409 8.8854 21.8265 8.94586C21.6914 9.51384 21.4663 10.0566 21.16 10.5536C21.1274 10.6065 21.1082 10.6666 21.104 10.7286C21.0999 10.7906 21.1109 10.8527 21.1361 10.9095L21.5257 11.7869L20.5802 12.7324L19.7031 12.3429C19.6463 12.3177 19.5842 12.3066 19.5222 12.3108C19.4602 12.315 19.4001 12.3342 19.3472 12.3668C18.8501 12.6732 18.3072 12.8983 17.7391 13.0334C17.6787 13.0478 17.6226 13.0767 17.5758 13.1176C17.5291 13.1585 17.4929 13.2102 17.4706 13.2682L17.1261 14.1631H15.789L15.4444 13.2679C15.422 13.2099 15.3859 13.1582 15.3392 13.1173C15.2924 13.0764 15.2363 13.0475 15.1759 13.0331C14.6079 12.898 14.0652 12.673 13.5682 12.3666C13.5153 12.334 13.4552 12.3148 13.3932 12.3107C13.3312 12.3065 13.2691 12.3175 13.2123 12.3427L12.3349 12.7324L11.3893 11.7868L11.7789 10.9098C11.8041 10.853 11.8151 10.7909 11.8109 10.7288C11.8068 10.6668 11.7876 10.6068 11.755 10.5538C11.4485 10.0567 11.2235 9.5138 11.0883 8.94567C11.0739 8.88522 11.0451 8.82919 11.0042 8.78242C10.9633 8.73564 10.9116 8.69954 10.8536 8.67722L9.95867 8.33273V6.99552L10.8538 6.65093C10.9118 6.62861 10.9635 6.59249 11.0044 6.54571C11.0453 6.49893 11.0741 6.44289 11.0885 6.38243C11.2237 5.81442 11.4487 5.27166 11.7551 4.77467C11.7877 4.72173 11.8069 4.66166 11.8111 4.59964C11.8153 4.53762 11.8042 4.47551 11.779 4.4187L11.3894 3.54142L12.335 2.59585L13.2124 2.98549C13.2692 3.0107 13.3313 3.0217 13.3933 3.01753C13.4553 3.01336 13.5153 2.99416 13.5683 2.96158C14.0653 2.65525 14.608 2.43025 15.176 2.29508C15.2364 2.28068 15.2924 2.25178 15.3392 2.21088C15.386 2.16997 15.4221 2.11829 15.4444 2.0603L15.7891 1.16509H17.1262L17.4708 2.0603C17.4931 2.11829 17.5292 2.16997 17.576 2.21088C17.6228 2.25178 17.6788 2.28068 17.7393 2.29508C18.3072 2.43024 18.85 2.65524 19.347 2.96158C19.3999 2.99416 19.46 3.01336 19.522 3.01752C19.584 3.02169 19.646 3.0107 19.7028 2.98549L20.5803 2.59581L21.5258 3.54138L21.1363 4.41846C21.1111 4.47527 21.1001 4.53736 21.1042 4.59938C21.1084 4.66139 21.1276 4.72146 21.1602 4.77438C21.4667 5.27147 21.6917 5.81435 21.8268 6.38248C21.8412 6.44294 21.8701 6.49898 21.911 6.54577C21.9519 6.59255 22.0035 6.62866 22.0615 6.65098L22.9565 6.99556V8.33278ZM16.4576 3.72527C14.2856 3.72527 12.5187 5.49225 12.5187 7.66417C12.5187 9.8361 14.2856 11.6031 16.4576 11.6031C18.6294 11.6031 20.3964 9.8361 20.3964 7.66417C20.3964 5.49225 18.6294 3.72527 16.4576 3.72527ZM16.4576 10.8379C14.7076 10.8379 13.2839 9.41413 13.2839 7.66417C13.2839 5.91422 14.7076 4.49048 16.4576 4.49048C18.2075 4.49048 19.6312 5.91422 19.6312 7.66417C19.6312 9.41413 18.2075 10.8379 16.4576 10.8379ZM1.14151 6.79838L0.902812 7.33585C0.871426 7.40651 0.862184 7.48502 0.876305 7.56104C0.890426 7.63706 0.927247 7.70701 0.981917 7.76169L1.82619 8.60596C1.88086 8.66064 1.95081 8.69747 2.02683 8.7116C2.10285 8.72573 2.18137 8.71649 2.25203 8.68511L2.78974 8.44627C3.05576 8.59266 3.3371 8.70929 3.62866 8.79406L3.83986 9.34272C3.86763 9.41488 3.91662 9.47693 3.98036 9.52069C4.0441 9.56446 4.11961 9.58788 4.19693 9.58788H5.39095C5.46827 9.58788 5.54378 9.56446 5.60752 9.52069C5.67126 9.47693 5.72024 9.41488 5.74802 9.34272L5.95913 8.7943C6.25081 8.70951 6.53226 8.59282 6.79838 8.44637L7.3358 8.68507C7.40646 8.71647 7.48497 8.72572 7.561 8.71159C7.63702 8.69747 7.70697 8.66064 7.76164 8.60596L8.60592 7.76164C8.66058 7.70697 8.6974 7.63701 8.71153 7.56099C8.72565 7.48497 8.7164 7.40646 8.68502 7.3358L8.44622 6.79809C8.59261 6.53205 8.70924 6.2507 8.79401 5.95913L9.34272 5.74793C9.41488 5.72015 9.47693 5.67116 9.52069 5.60742C9.56446 5.54368 9.58788 5.46818 9.58788 5.39086V4.19688C9.58788 4.11956 9.56446 4.04406 9.52069 3.98031C9.47693 3.91657 9.41488 3.86759 9.34272 3.83981L8.79421 3.62866C8.70941 3.337 8.59275 3.05556 8.44632 2.78945L8.68502 2.25199C8.7164 2.18132 8.72565 2.10281 8.71153 2.02679C8.6974 1.95077 8.66058 1.88082 8.60592 1.82614L7.76169 0.981964C7.70701 0.927299 7.63706 0.890477 7.56104 0.876348C7.48503 0.862218 7.40652 0.871445 7.33585 0.902812L6.79814 1.14161C6.53211 0.995232 6.25078 0.878598 5.95922 0.793817L5.74807 0.245156C5.72029 0.172999 5.67131 0.110951 5.60756 0.0671875C5.54382 0.0234241 5.46832 -6.67957e-07 5.391 0H4.19697C4.11966 -6.67957e-07 4.04415 0.0234241 3.98041 0.0671875C3.91667 0.110951 3.86768 0.172999 3.83991 0.245156L3.62871 0.793817C3.33715 0.878623 3.05581 0.995273 2.78979 1.14166L2.25208 0.902812C2.18141 0.871445 2.1029 0.862218 2.02688 0.876348C1.95087 0.890477 1.88092 0.927299 1.82624 0.981964L0.981917 1.82629C0.927247 1.88096 0.890426 1.95092 0.876305 2.02694C0.862184 2.10295 0.871426 2.18147 0.902812 2.25213L1.14161 2.78969C0.995204 3.05575 0.878539 3.33711 0.793721 3.62871L0.245156 3.83991C0.173003 3.86769 0.110958 3.91668 0.0671959 3.98042C0.0234334 4.04416 5.9667e-06 4.11966 0 4.19698V5.39095C-6.67957e-07 5.46827 0.0234241 5.54378 0.0671875 5.60752C0.110951 5.67126 0.172999 5.72025 0.245156 5.74802L0.793625 5.95913C0.878446 6.25079 0.99511 6.53224 1.14151 6.79838ZM0.765217 4.45968L1.25099 4.27268C1.30897 4.25037 1.36065 4.21426 1.40155 4.16749C1.44245 4.12072 1.47134 4.06468 1.48572 4.00424C1.56897 3.65432 1.70762 3.31996 1.8964 3.01381C1.929 2.96088 1.94822 2.9008 1.95239 2.83878C1.95655 2.77676 1.94554 2.71465 1.92031 2.65784L1.70878 2.18163L2.18154 1.70887L2.65784 1.92041C2.71464 1.94561 2.77672 1.95661 2.83872 1.95245C2.90072 1.94829 2.96078 1.9291 3.01371 1.89654C3.31988 1.70779 3.65423 1.56916 4.00414 1.48591C4.06459 1.47151 4.12062 1.44261 4.16739 1.40171C4.21416 1.3608 4.25027 1.30912 4.27259 1.25113L4.45964 0.765265H5.1282L5.3152 1.25113C5.33751 1.30912 5.37362 1.3608 5.42039 1.40171C5.46716 1.44261 5.5232 1.47151 5.58364 1.48591C5.93354 1.56917 6.26789 1.70778 6.57407 1.89649C6.62699 1.92907 6.68705 1.94827 6.74905 1.95244C6.81106 1.9566 6.87314 1.94561 6.92995 1.92041L7.40625 1.70887L7.87901 2.18163L7.66757 2.65769C7.64235 2.7145 7.63135 2.7766 7.63551 2.83861C7.63968 2.90063 7.65889 2.96069 7.69148 3.01361C7.88027 3.31983 8.0189 3.65426 8.10212 4.00424C8.1165 4.0647 8.14539 4.12075 8.18629 4.16754C8.2272 4.21433 8.27889 4.25045 8.33689 4.27278L8.82261 4.45973V5.12834L8.33675 5.31534C8.27876 5.33765 8.22708 5.37376 8.18618 5.42053C8.14528 5.46731 8.1164 5.52334 8.10202 5.58379C8.01873 5.93367 7.88011 6.268 7.69139 6.57417C7.65879 6.62709 7.63958 6.68716 7.63542 6.74917C7.63125 6.81119 7.64225 6.87328 7.66747 6.93009L7.87901 7.40634L7.40625 7.87915L6.93019 7.66771C6.87338 7.64247 6.81128 7.63146 6.74927 7.63562C6.68725 7.63979 6.62718 7.65901 6.57426 7.69162C6.26805 7.88044 5.93363 8.01908 5.58364 8.10231C5.52319 8.11669 5.46715 8.14559 5.42037 8.1865C5.37358 8.2274 5.33747 8.27909 5.31515 8.33708L5.1282 8.82276H4.45964L4.27259 8.33689C4.25026 8.27891 4.21415 8.22723 4.16738 8.18632C4.12061 8.14542 4.06458 8.11652 4.00414 8.10211C3.65425 8.01888 3.31991 7.88027 3.01376 7.69153C2.96084 7.65895 2.90078 7.63975 2.83878 7.63558C2.77677 7.63141 2.71469 7.64241 2.65788 7.66762L2.18154 7.87915L1.70878 7.40634L1.92022 6.93028C1.94544 6.87347 1.95644 6.81138 1.95227 6.74936C1.9481 6.68735 1.92889 6.62728 1.8963 6.57436C1.70754 6.26811 1.5689 5.93367 1.48562 5.58369C1.47125 5.52323 1.44237 5.46719 1.40147 5.42041C1.36057 5.37362 1.30889 5.33751 1.25089 5.3152L0.765217 5.12829V4.45968ZM4.79394 7.25889C6.15311 7.25889 7.25889 6.15316 7.25889 4.79399C7.25889 3.43482 6.15311 2.32899 4.79394 2.32899C3.43477 2.32899 2.32898 3.43477 2.32898 4.79399C2.32898 6.15316 3.43477 7.25889 4.79394 7.25889ZM4.79394 3.09425C5.73119 3.09425 6.49368 3.85674 6.49368 4.79404C6.49368 5.73123 5.73119 6.49373 4.79394 6.49373C3.85669 6.49373 3.0942 5.73123 3.0942 4.79404C3.0942 3.85674 3.85674 3.09425 4.79394 3.09425ZM19.0764 16.0996L14.6296 17.3093C14.4339 17.3625 14.2425 17.3893 14.0515 17.3893H14.0503C14.1402 17.2966 14.221 17.1893 14.2912 17.0677C14.6924 16.3731 14.4573 15.4727 13.7563 15.018C13.7418 15.0087 13.7267 15.0003 13.7111 14.9929C12.6611 14.4984 11.6768 13.8123 10.8859 13.261C10.6107 13.0692 10.3508 12.888 10.127 12.7429C9.21823 12.1534 8.21436 12.3111 7.3522 12.5433L4.07511 13.4257L3.94044 12.9053C3.87578 12.6554 3.71714 12.4453 3.49369 12.3137C3.27025 12.1822 3.00969 12.1454 2.75966 12.21L1.51676 12.5317C0.999612 12.6655 0.687691 13.1952 0.82146 13.7124L2.49222 20.1687C2.55688 20.4187 2.71551 20.6288 2.93896 20.7603C3.09042 20.8495 3.25896 20.8952 3.42975 20.8952C3.51086 20.8952 3.59245 20.8849 3.67294 20.8641L4.91585 20.5425C5.16579 20.4778 5.37584 20.3192 5.50741 20.0957C5.63898 19.8723 5.6758 19.6116 5.61114 19.3618L5.44614 18.7241L6.15971 18.5329L10.722 21.167C11.2179 21.4533 11.7463 21.598 12.2828 21.598C12.5787 21.598 12.8772 21.554 13.174 21.4654L21.3061 19.0376C22.0619 18.812 22.5377 17.8615 22.3044 17.0435C22.1912 16.6468 21.624 15.4065 19.0764 16.0996ZM4.84803 19.7074C4.83191 19.7348 4.79437 19.7834 4.72416 19.8017L3.48121 20.1233C3.411 20.1413 3.35466 20.1171 3.32721 20.101C3.29985 20.0849 3.25121 20.0473 3.23304 19.9771L1.56233 13.5206C1.53469 13.4137 1.60165 13.3 1.70854 13.2724L2.95144 12.9508C2.96909 12.9462 2.98588 12.9443 3.00156 12.9443C3.04819 12.9443 3.08497 12.961 3.10549 12.9731C3.13285 12.9892 3.18148 13.0267 3.19966 13.0969L4.87037 19.5534C4.88849 19.6236 4.86415 19.68 4.84803 19.7074ZM21.0872 18.3043L12.955 20.7321C12.3181 20.9222 11.6956 20.8455 11.1047 20.5043L6.40506 17.791C6.31718 17.7402 6.21276 17.7265 6.11475 17.7527L5.25446 17.9833L4.26685 14.1665L7.55121 13.2822C8.28567 13.0844 9.05572 12.96 9.7106 13.3849C9.92367 13.5231 10.1668 13.6925 10.4484 13.8888C11.2566 14.4522 12.261 15.1522 13.3594 15.6731C13.7095 15.9128 13.8256 16.3439 13.6286 16.6851C13.3695 17.1339 12.9489 17.0861 12.6362 16.963C12.1021 16.6953 11.6057 16.3979 11.0804 16.083C10.8308 15.9334 10.5727 15.7787 10.306 15.6247C10.2625 15.5992 10.2143 15.5825 10.1643 15.5757C10.1143 15.5688 10.0635 15.5719 10.0147 15.5848C9.96591 15.5977 9.92016 15.6202 9.88008 15.6508C9.83999 15.6815 9.80637 15.7197 9.78114 15.7634C9.75591 15.8071 9.73957 15.8554 9.73307 15.9054C9.72656 15.9555 9.73002 16.0063 9.74324 16.055C9.75646 16.1037 9.77919 16.1493 9.8101 16.1892C9.84102 16.229 9.87951 16.2624 9.92338 16.2874C10.1847 16.4382 10.44 16.5912 10.687 16.7393C11.2297 17.0646 11.7422 17.3719 12.3077 17.6544C12.3097 17.6554 12.3118 17.6561 12.3138 17.657C12.3165 17.6583 12.3189 17.6598 12.3216 17.6611L12.7792 17.867C13.4703 18.176 14.1414 18.2351 14.8305 18.0477L19.2773 16.838C20.5399 16.4946 21.3965 16.6498 21.5685 17.2534C21.6866 17.6675 21.4437 18.1979 21.0872 18.3043ZM2.96708 14.0891C2.96099 14.1412 2.94471 14.1915 2.91917 14.2372C2.89363 14.283 2.85933 14.3232 2.81823 14.3557C2.77713 14.3882 2.73003 14.4123 2.67963 14.4265C2.62923 14.4408 2.57651 14.445 2.52447 14.4389C2.47244 14.4329 2.42212 14.4166 2.37638 14.391C2.33064 14.3655 2.29038 14.3312 2.2579 14.2901C2.22541 14.249 2.20134 14.2019 2.18706 14.1515C2.17277 14.1011 2.16856 14.0484 2.17465 13.9963C2.18695 13.8913 2.2405 13.7954 2.3235 13.7298C2.40651 13.6642 2.51217 13.6342 2.61726 13.6465C2.72234 13.6588 2.81823 13.7124 2.88383 13.7954C2.94944 13.8784 2.97938 13.984 2.96708 14.0891Z" fill="#F8FAFC"/>
</svg>
