<svg width="15" height="15" viewBox="0 0 15 15" fill="none" xmlns="http://www.w3.org/2000/svg">
    <path fill-rule="evenodd" clip-rule="evenodd" d="M7.49998 0C3.35788 0 0 3.35784 0 7.49998C0 11.6421 3.35788 15 7.49998 15C11.6422 15 15 11.6421 15 7.49998C15 3.35784 11.6422 0 7.49998 0ZM7.49998 13.5C4.19161 13.5 1.50001 10.8084 1.50001 7.49998C1.50001 4.19157 4.19157 1.50001 7.49998 1.50001C10.8084 1.50001 13.5 4.19157 13.5 7.49998C13.5 10.8084 10.8084 13.5 7.49998 13.5ZM8.43915 4.5C8.43915 5.04379 8.04322 5.43751 7.50761 5.43751C6.95035 5.43751 6.56412 5.04376 6.56412 4.48959C6.56412 3.95697 6.96079 3.56252 7.50761 3.56252C8.04322 3.56252 8.43915 3.95697 8.43915 4.5ZM6.75165 6.74999H8.25162V11.25H6.75165V6.74999Z" fill="black"/>
</svg>



