<svg width="15" height="8" viewBox="0 0 15 8" fill="none" xmlns="http://www.w3.org/2000/svg">
    <path d="M7.07975 5.84017L12.6337 0.369439C12.8226 0.18336 13.042 0.0942632 13.292 0.10215C13.5419 0.110037 13.76 0.208686 13.946 0.398096C14.1321 0.587006 14.2242 0.806458 14.2223 1.05645C14.2204 1.30644 14.125 1.52448 13.9361 1.71056L8.13644 7.44194C7.98531 7.5908 7.81571 7.70203 7.62765 7.77561C7.43959 7.84919 7.25181 7.88527 7.06432 7.88386C6.87682 7.88244 6.68961 7.84353 6.50268 7.76712C6.31575 7.6907 6.14786 7.57693 5.999 7.4258L0.267756 1.60737C0.0816763 1.41846 -0.00739515 1.19578 0.000540977 0.939338C0.00847711 0.68289 0.107148 0.461879 0.296555 0.276304C0.485465 0.0902249 0.704916 -0.00187108 0.954909 1.61547e-05C1.2049 0.00190339 1.42294 0.097302 1.60902 0.286212L7.07975 5.84017Z" fill="#A19BAA"/>
</svg>
