<svg width="22" height="22" viewBox="0 0 22 22" fill="none" xmlns="http://www.w3.org/2000/svg">
    <path d="M19.4785 2.86097H17.7829V2.18271C17.7829 1.82293 17.6399 1.47789 17.3855 1.22349C17.1311 0.969092 16.7861 0.826172 16.4263 0.826172C16.0665 0.826172 15.7215 0.969092 15.4671 1.22349C15.2127 1.47789 15.0698 1.82293 15.0698 2.18271V2.86097H12.3567V2.18271C12.3567 1.82293 12.2138 1.47789 11.9594 1.22349C11.705 0.969092 11.36 0.826172 11.0002 0.826172C10.6404 0.826172 10.2954 0.969092 10.041 1.22349C9.78657 1.47789 9.64365 1.82293 9.64365 2.18271V2.86097H6.93058V2.18271C6.93058 1.82293 6.78766 1.47789 6.53326 1.22349C6.27886 0.969092 5.93382 0.826172 5.57404 0.826172C5.21427 0.826172 4.86923 0.969092 4.61483 1.22349C4.36043 1.47789 4.21751 1.82293 4.21751 2.18271V2.86097H2.52184C2.07212 2.86097 1.64082 3.03962 1.32282 3.35762C1.00482 3.67562 0.826172 4.10692 0.826172 4.55664V18.122C0.826172 18.5717 1.00482 19.003 1.32282 19.321C1.64082 19.639 2.07212 19.8177 2.52184 19.8177H12.0176C12.1075 19.8177 12.1938 19.7819 12.2574 19.7183C12.321 19.6547 12.3567 19.5685 12.3567 19.4785C12.3567 19.3886 12.321 19.3023 12.2574 19.2387C12.1938 19.1751 12.1075 19.1394 12.0176 19.1394H2.52184C2.25226 19.1386 1.99394 19.0311 1.80332 18.8405C1.61269 18.6499 1.50524 18.3916 1.50444 18.122V7.60884H20.4959V13.3741C20.4959 13.4641 20.5317 13.5503 20.5953 13.6139C20.6589 13.6775 20.7451 13.7133 20.8351 13.7133C20.925 13.7133 21.0113 13.6775 21.0749 13.6139C21.1385 13.5503 21.1742 13.4641 21.1742 13.3741V4.55664C21.1742 4.10692 20.9955 3.67562 20.6775 3.35762C20.3595 3.03962 19.9282 2.86097 19.4785 2.86097ZM15.7481 2.18271C15.7481 2.00282 15.8195 1.8303 15.9467 1.7031C16.0739 1.5759 16.2464 1.50444 16.4263 1.50444C16.6062 1.50444 16.7787 1.5759 16.9059 1.7031C17.0331 1.8303 17.1046 2.00282 17.1046 2.18271V4.21751C17.1046 4.3974 17.0331 4.56992 16.9059 4.69712C16.7787 4.82432 16.6062 4.89578 16.4263 4.89578C16.2464 4.89578 16.0739 4.82432 15.9467 4.69712C15.8195 4.56992 15.7481 4.3974 15.7481 4.21751V2.18271ZM10.3219 2.18271C10.3219 2.00282 10.3934 1.8303 10.5206 1.7031C10.6478 1.5759 10.8203 1.50444 11.0002 1.50444C11.1801 1.50444 11.3526 1.5759 11.4798 1.7031C11.607 1.8303 11.6784 2.00282 11.6784 2.18271V4.21751C11.6784 4.3974 11.607 4.56992 11.4798 4.69712C11.3526 4.82432 11.1801 4.89578 11.0002 4.89578C10.8203 4.89578 10.6478 4.82432 10.5206 4.69712C10.3934 4.56992 10.3219 4.3974 10.3219 4.21751V2.18271ZM4.89578 2.18271C4.89578 2.00282 4.96724 1.8303 5.09444 1.7031C5.22164 1.5759 5.39416 1.50444 5.57404 1.50444C5.75393 1.50444 5.92645 1.5759 6.05365 1.7031C6.18085 1.8303 6.25231 2.00282 6.25231 2.18271V4.21751C6.25231 4.3974 6.18085 4.56992 6.05365 4.69712C5.92645 4.82432 5.75393 4.89578 5.57404 4.89578C5.39416 4.89578 5.22164 4.82432 5.09444 4.69712C4.96724 4.56992 4.89578 4.3974 4.89578 4.21751V2.18271ZM20.4959 6.93058H1.50444V4.55664C1.50524 4.28706 1.61269 4.02875 1.80332 3.83812C1.99394 3.64749 2.25226 3.54005 2.52184 3.53924H4.21751V4.21751C4.21751 4.57728 4.36043 4.92232 4.61483 5.17672C4.86923 5.43112 5.21427 5.57404 5.57404 5.57404C5.93382 5.57404 6.27886 5.43112 6.53326 5.17672C6.78766 4.92232 6.93058 4.57728 6.93058 4.21751V3.53924H9.64365V4.21751C9.64365 4.57728 9.78657 4.92232 10.041 5.17672C10.2954 5.43112 10.6404 5.57404 11.0002 5.57404C11.36 5.57404 11.705 5.43112 11.9594 5.17672C12.2138 4.92232 12.3567 4.57728 12.3567 4.21751V3.53924H15.0698V4.21751C15.0698 4.57728 15.2127 4.92232 15.4671 5.17672C15.7215 5.43112 16.0665 5.57404 16.4263 5.57404C16.7861 5.57404 17.1311 5.43112 17.3855 5.17672C17.6399 4.92232 17.7829 4.57728 17.7829 4.21751V3.53924H19.4785C19.7481 3.54005 20.0064 3.64749 20.197 3.83812C20.3877 4.02875 20.4951 4.28706 20.4959 4.55664V6.93058Z" fill="#A19BAA"/>
    <path d="M10.3217 9.98295C10.3217 9.80307 10.2503 9.63055 10.1231 9.50335C9.99588 9.37615 9.82336 9.30469 9.64347 9.30469H8.28693C8.10705 9.30469 7.93453 9.37615 7.80733 9.50335C7.68013 9.63055 7.60867 9.80307 7.60867 9.98295V11.0004C7.60867 11.1802 7.68013 11.3528 7.80733 11.48C7.93453 11.6072 8.10705 11.6786 8.28693 11.6786H9.64347C9.82336 11.6786 9.99588 11.6072 10.1231 11.48C10.2503 11.3528 10.3217 11.1802 10.3217 11.0004V9.98295ZM8.28693 11.0004V9.98295H9.64347V11.0004H8.28693ZM6.25213 9.98295C6.25213 9.80307 6.18067 9.63055 6.05347 9.50335C5.92627 9.37615 5.75375 9.30469 5.57386 9.30469H4.21733C4.03744 9.30469 3.86492 9.37615 3.73772 9.50335C3.61052 9.63055 3.53906 9.80307 3.53906 9.98295V11.0004C3.53906 11.1802 3.61052 11.3528 3.73772 11.48C3.86492 11.6072 4.03744 11.6786 4.21733 11.6786H5.57386C5.75375 11.6786 5.92627 11.6072 6.05347 11.48C6.18067 11.3528 6.25213 11.1802 6.25213 11.0004V9.98295ZM4.21733 11.0004V9.98295H5.57386V11.0004H4.21733ZM17.7827 11.6786C17.9626 11.6786 18.1351 11.6072 18.2623 11.48C18.3895 11.3528 18.4609 11.1802 18.4609 11.0004V9.98295C18.4609 9.80307 18.3895 9.63055 18.2623 9.50335C18.1351 9.37615 17.9626 9.30469 17.7827 9.30469H16.4261C16.2463 9.30469 16.0737 9.37615 15.9465 9.50335C15.8193 9.63055 15.7479 9.80307 15.7479 9.98295V11.0004C15.7479 11.1802 15.8193 11.3528 15.9465 11.48C16.0737 11.6072 16.2463 11.6786 16.4261 11.6786H17.7827ZM16.4261 9.98295H17.7827V11.0004H16.4261V9.98295ZM10.3217 13.0352C10.3217 12.8553 10.2503 12.6827 10.1231 12.5556C9.99588 12.4284 9.82336 12.3569 9.64347 12.3569H8.28693C8.10705 12.3569 7.93453 12.4284 7.80733 12.5556C7.68013 12.6827 7.60867 12.8553 7.60867 13.0352V14.0526C7.60867 14.2324 7.68013 14.405 7.80733 14.5322C7.93453 14.6594 8.10705 14.7308 8.28693 14.7308H9.64347C9.82336 14.7308 9.99588 14.6594 10.1231 14.5322C10.2503 14.405 10.3217 14.2324 10.3217 14.0526V13.0352ZM8.28693 14.0526V13.0352H9.64347V14.0526H8.28693ZM6.25213 13.0352C6.25213 12.8553 6.18067 12.6827 6.05347 12.5556C5.92627 12.4284 5.75375 12.3569 5.57386 12.3569H4.21733C4.03744 12.3569 3.86492 12.4284 3.73772 12.5556C3.61052 12.6827 3.53906 12.8553 3.53906 13.0352V14.0526C3.53906 14.2324 3.61052 14.405 3.73772 14.5322C3.86492 14.6594 4.03744 14.7308 4.21733 14.7308H5.57386C5.75375 14.7308 5.92627 14.6594 6.05347 14.5322C6.18067 14.405 6.25213 14.2324 6.25213 14.0526V13.0352ZM4.21733 14.0526V13.0352H5.57386V14.0526H4.21733ZM9.64347 15.4091H8.28693C8.10705 15.4091 7.93453 15.4806 7.80733 15.6078C7.68013 15.735 7.60867 15.9075 7.60867 16.0874V17.1048C7.60867 17.2846 7.68013 17.4572 7.80733 17.5844C7.93453 17.7116 8.10705 17.783 8.28693 17.783H9.64347C9.82336 17.783 9.99588 17.7116 10.1231 17.5844C10.2503 17.4572 10.3217 17.2846 10.3217 17.1048V16.0874C10.3217 15.9075 10.2503 15.735 10.1231 15.6078C9.99588 15.4806 9.82336 15.4091 9.64347 15.4091ZM8.28693 17.1048V16.0874H9.64347V17.1048H8.28693ZM12.3565 11.6786H13.7131C13.893 11.6786 14.0655 11.6072 14.1927 11.48C14.3199 11.3528 14.3913 11.1802 14.3913 11.0004V9.98295C14.3913 9.80307 14.3199 9.63055 14.1927 9.50335C14.0655 9.37615 13.893 9.30469 13.7131 9.30469H12.3565C12.1767 9.30469 12.0041 9.37615 11.8769 9.50335C11.7497 9.63055 11.6783 9.80307 11.6783 9.98295V11.0004C11.6783 11.1802 11.7497 11.3528 11.8769 11.48C12.0041 11.6072 12.1767 11.6786 12.3565 11.6786ZM12.3565 9.98295H13.7131V11.0004H12.3565V9.98295ZM11.6783 14.0526C11.6783 14.2324 11.7497 14.405 11.8769 14.5322C12.0041 14.6594 12.1767 14.7308 12.3565 14.7308C12.4465 14.7308 12.5327 14.6951 12.5963 14.6315C12.6599 14.5679 12.6957 14.4816 12.6957 14.3917C12.6957 14.3017 12.6599 14.2155 12.5963 14.1519C12.5327 14.0883 12.4465 14.0526 12.3565 14.0526V13.0352H13.7131C13.803 13.0352 13.8893 12.9994 13.9529 12.9358C14.0165 12.8722 14.0522 12.786 14.0522 12.696C14.0522 12.6061 14.0165 12.5198 13.9529 12.4562C13.8893 12.3926 13.803 12.3569 13.7131 12.3569H12.3565C12.1767 12.3569 12.0041 12.4284 11.8769 12.5556C11.7497 12.6827 11.6783 12.8553 11.6783 13.0352V14.0526ZM5.57386 15.4091H4.21733C4.03744 15.4091 3.86492 15.4806 3.73772 15.6078C3.61052 15.735 3.53906 15.9075 3.53906 16.0874V17.1048C3.53906 17.2846 3.61052 17.4572 3.73772 17.5844C3.86492 17.7116 4.03744 17.783 4.21733 17.783H5.57386C5.75375 17.783 5.92627 17.7116 6.05347 17.5844C6.18067 17.4572 6.25213 17.2846 6.25213 17.1048V16.0874C6.25213 15.9075 6.18067 15.735 6.05347 15.6078C5.92627 15.4806 5.75375 15.4091 5.57386 15.4091ZM4.21733 17.1048V16.0874H5.57386V17.1048H4.21733Z" fill="#A19BAA"/>
    <path d="M16.7657 12.3569C15.8937 12.3569 15.0413 12.6155 14.3163 13.0999C13.5913 13.5844 13.0262 14.2729 12.6925 15.0785C12.3588 15.8841 12.2715 16.7706 12.4416 17.6258C12.6118 18.481 13.0317 19.2665 13.6482 19.8831C14.2648 20.4997 15.0504 20.9196 15.9056 21.0897C16.7608 21.2598 17.6472 21.1725 18.4528 20.8388C19.2584 20.5051 19.947 19.94 20.4314 19.215C20.9158 18.49 21.1744 17.6376 21.1744 16.7657C21.1731 15.5968 20.7081 14.4762 19.8816 13.6497C19.0551 12.8232 17.9345 12.3583 16.7657 12.3569ZM16.7657 20.4961C16.0279 20.4961 15.3066 20.2774 14.6931 19.8674C14.0797 19.4575 13.6015 18.8749 13.3192 18.1933C13.0368 17.5116 12.9629 16.7615 13.1069 16.0379C13.2508 15.3143 13.6061 14.6495 14.1278 14.1278C14.6495 13.6061 15.3143 13.2508 16.0379 13.1069C16.7615 12.9629 17.5116 13.0368 18.1933 13.3192C18.8749 13.6015 19.4575 14.0797 19.8674 14.6931C20.2774 15.3066 20.4961 16.0279 20.4961 16.7657C20.495 17.7547 20.1016 18.7029 19.4022 19.4022C18.7029 20.1016 17.7547 20.495 16.7657 20.4961Z" fill="#A19BAA"/>
    <path d="M18.7248 15.3437L16.087 17.9815L14.8882 16.7823C14.8242 16.7206 14.7386 16.6864 14.6497 16.6872C14.5607 16.6879 14.4757 16.7236 14.4128 16.7865C14.3499 16.8493 14.3143 16.9344 14.3135 17.0233C14.3127 17.1122 14.3469 17.1979 14.4087 17.2619L15.8473 18.7008C15.9109 18.7644 15.9971 18.8001 16.087 18.8001C16.177 18.8001 16.2632 18.7644 16.3268 18.7008L19.2044 15.8233C19.2661 15.7593 19.3003 15.6736 19.2996 15.5847C19.2988 15.4958 19.2631 15.4107 19.2002 15.3479C19.1374 15.285 19.0523 15.2493 18.9634 15.2485C18.8745 15.2478 18.7888 15.282 18.7248 15.3437Z" fill="#A19BAA"/>
</svg>
