<svg width="28" height="26" viewBox="0 0 28 26" fill="none" xmlns="http://www.w3.org/2000/svg">
    <path d="M13.5416 8.05244C17.1052 8.05244 19.956 10.9033 19.956 14.4669C19.956 18.0305 17.1052 20.8813 13.5416 20.8813C9.97801 20.8813 7.12715 18.0305 7.12715 14.4669C7.12715 10.9033 9.97801 8.05244 13.5416 8.05244ZM13.5416 9.47787C12.2184 9.47787 10.9494 10.0035 10.0138 10.9391C9.07821 11.8747 8.55258 13.1437 8.55258 14.4669C8.55258 15.79 9.07821 17.059 10.0138 17.9946C10.9494 18.9303 12.2184 19.4559 13.5416 19.4559C14.8647 19.4559 16.1337 18.9303 17.0693 17.9946C18.005 17.059 18.5306 15.79 18.5306 14.4669C18.5306 13.1437 18.005 11.8747 17.0693 10.9391C16.1337 10.0035 14.8647 9.47787 13.5416 9.47787ZM4.27629 3.77615H7.12715L9.97801 0.925293H17.1052L19.956 3.77615H22.8069C23.941 3.77615 25.0287 4.22669 25.8307 5.02865C26.6326 5.83061 27.0832 6.9183 27.0832 8.05244V20.8813C27.0832 22.0155 26.6326 23.1031 25.8307 23.9051C25.0287 24.7071 23.941 25.1576 22.8069 25.1576H4.27629C3.14215 25.1576 2.05446 24.7071 1.2525 23.9051C0.450537 23.1031 0 22.0155 0 20.8813V8.05244C0 6.9183 0.450537 5.83061 1.2525 5.02865C2.05446 4.22669 3.14215 3.77615 4.27629 3.77615ZM10.5624 2.35072L7.71158 5.20158H4.27629C3.5202 5.20158 2.79507 5.50194 2.26043 6.03658C1.72579 6.57122 1.42543 7.29635 1.42543 8.05244V20.8813C1.42543 21.6374 1.72579 22.3625 2.26043 22.8972C2.79507 23.4318 3.5202 23.7322 4.27629 23.7322H22.8069C23.563 23.7322 24.2881 23.4318 24.8227 22.8972C25.3574 22.3625 25.6577 21.6374 25.6577 20.8813V8.05244C25.6577 7.29635 25.3574 6.57122 24.8227 6.03658C24.2881 5.50194 23.563 5.20158 22.8069 5.20158H19.3716L16.5207 2.35072H10.5624Z" fill="#F8FAFC"/>
</svg>
