<svg width="27" height="16" viewBox="0 0 27 16" fill="none" xmlns="http://www.w3.org/2000/svg">
    <path d="M13.0231 6.80103C14.8982 6.80103 16.4236 5.27559 16.4236 3.40051C16.4236 1.52544 14.8982 0 13.0231 0C11.1481 0 9.62262 1.52549 9.62262 3.40051C9.62262 5.27554 11.1481 6.80103 13.0231 6.80103ZM13.0231 1.62789C14.0006 1.62789 14.7958 2.42307 14.7958 3.40051C14.7958 4.37791 14.0006 5.17314 13.0231 5.17314C12.0457 5.17314 11.2505 4.37796 11.2505 3.40051C11.2505 2.42307 12.0457 1.62789 13.0231 1.62789ZM15.8269 8.11229C14.9156 7.96716 13.9722 7.8936 13.0231 7.8936C12.074 7.8936 11.1308 7.96716 10.2194 8.11229C8.00043 8.4657 6.38988 10.353 6.38988 12.6V15.0244C6.38988 15.4739 6.75433 15.8383 7.20383 15.8383H18.8425C19.292 15.8383 19.6564 15.4739 19.6564 15.0244V12.6C19.6564 10.353 18.0459 8.4657 15.8269 8.11229ZM18.0285 14.2105H8.01777V12.6C8.01777 11.158 9.05138 9.94678 10.4755 9.71994C11.3024 9.58828 12.1595 9.52149 13.0232 9.52149C13.8868 9.52149 14.744 9.58828 15.5709 9.71994C16.995 9.94672 18.0286 11.158 18.0286 12.6V14.2105H18.0285ZM20.6008 6.68718C22.1848 6.68718 23.4734 5.39855 23.4734 3.81461C23.4734 2.23067 22.1848 0.942041 20.6008 0.942041C19.0169 0.942041 17.7283 2.23067 17.7283 3.81461C17.7283 5.39855 19.0168 6.68718 20.6008 6.68718ZM20.6008 2.56993C21.2871 2.56993 21.8455 3.1283 21.8455 3.81461C21.8455 4.50092 21.2871 5.05928 20.6008 5.05928C19.9145 5.05928 19.3561 4.50092 19.3561 3.81461C19.3561 3.1283 19.9145 2.56993 20.6008 2.56993ZM26.0463 11.1364V12.4889C26.0463 12.9384 25.6818 13.3029 25.2323 13.3029H20.8509C20.4014 13.3029 20.0369 12.9384 20.0369 12.4889C20.0369 12.0394 20.4014 11.675 20.8509 11.675H24.4184V11.1364C24.4184 10.0708 23.6546 9.17577 22.6024 9.00824C21.953 8.90482 21.2796 8.85237 20.6008 8.85237C20.0169 8.85237 19.4349 8.89129 18.8711 8.96806C18.4255 9.02859 18.0154 8.7168 17.9548 8.27142C17.8941 7.82599 18.206 7.41576 18.6514 7.35507C19.2878 7.26838 19.9436 7.22448 20.6007 7.22448C21.3651 7.22448 22.1246 7.28375 22.8583 7.4006C24.7055 7.69474 26.0463 9.26586 26.0463 11.1364ZM5.4455 6.68718C7.02944 6.68718 8.31807 5.39855 8.31807 3.81461C8.31807 2.23067 7.02944 0.942041 5.4455 0.942041C3.86156 0.942041 2.57288 2.23067 2.57288 3.81461C2.57288 5.39855 3.86156 6.68718 5.4455 6.68718ZM5.4455 2.56993C6.13181 2.56993 6.69018 3.1283 6.69018 3.81461C6.69018 4.50092 6.13181 5.05928 5.4455 5.05928C4.75914 5.05928 4.20077 4.50092 4.20077 3.81461C4.20077 3.1283 4.75919 2.56993 5.4455 2.56993ZM6.00936 12.489C6.00936 12.9385 5.64492 13.3029 5.19542 13.3029H0.813946C0.364444 13.3029 0 12.9385 0 12.489V11.1364C0 9.26586 1.34072 7.69479 3.18792 7.40065C3.92159 7.2838 4.68116 7.22453 5.4455 7.22453C6.10261 7.22453 6.75845 7.26849 7.3948 7.35512C7.84018 7.41576 8.15213 7.82604 8.09144 8.27147C8.0308 8.7169 7.62072 9.02905 7.17509 8.96811C6.61128 8.89134 6.02936 8.85243 5.44545 8.85243C4.76662 8.85243 4.09318 8.90487 3.44391 9.0083C2.39163 9.17582 1.62789 10.0708 1.62789 11.1364V11.675H5.19542C5.64497 11.675 6.00936 12.0394 6.00936 12.489Z" fill="#F8FAFC"/>
</svg>
