<svg width="18" height="24" viewBox="0 0 18 24" fill="none" xmlns="http://www.w3.org/2000/svg">
    <path d="M8.90015 23.4284C8.62682 23.4284 8.39253 23.3503 8.19729 23.1941C8.00206 23.038 7.85563 22.833 7.75801 22.5791C7.38706 21.4858 6.91849 20.4608 6.35231 19.5042C5.80564 18.5475 5.03446 17.4249 4.03875 16.1363C3.04304 14.8478 2.23281 13.6178 1.60805 12.4464C1.00281 11.2749 0.700195 9.85946 0.700195 8.19995C0.700195 5.91568 1.49091 3.98283 3.07232 2.40141C4.67327 0.800471 6.61587 0 8.90015 0C11.1844 0 13.1173 0.800471 14.6987 2.40141C16.2996 3.98283 17.1001 5.91568 17.1001 8.19995C17.1001 9.97661 16.7584 11.4604 16.0751 12.6514C15.4113 13.8228 14.6401 14.9844 13.7615 16.1363C12.7073 17.542 11.9068 18.7135 11.3601 19.6506C10.833 20.5682 10.3937 21.5444 10.0423 22.5791C9.94466 22.8525 9.78848 23.0672 9.57372 23.2234C9.37848 23.3601 9.15396 23.4284 8.90015 23.4284ZM8.90015 19.2406C9.23205 18.5768 9.603 17.9227 10.013 17.2785C10.4425 16.6342 11.0673 15.7751 11.8873 14.7013C12.7268 13.608 13.4101 12.6025 13.9373 11.6849C14.4839 10.7478 14.7573 9.58613 14.7573 8.19995C14.7573 6.57948 14.1813 5.20306 13.0294 4.07069C11.897 2.91879 10.5206 2.34284 8.90015 2.34284C7.27968 2.34284 5.8935 2.91879 4.7416 4.07069C3.60923 5.20306 3.04304 6.57948 3.04304 8.19995C3.04304 9.58613 3.30661 10.7478 3.83375 11.6849C4.38041 12.6025 5.0735 13.608 5.91302 14.7013C6.73302 15.7751 7.34801 16.6342 7.75801 17.2785C8.18753 17.9227 8.56824 18.5768 8.90015 19.2406ZM8.90015 11.1285C9.72014 11.1285 10.4132 10.8454 10.9794 10.2792C11.5456 9.71304 11.8287 9.01995 11.8287 8.19995C11.8287 7.37995 11.5456 6.68686 10.9794 6.12068C10.4132 5.55449 9.72014 5.2714 8.90015 5.2714C8.08015 5.2714 7.38706 5.55449 6.82087 6.12068C6.25469 6.68686 5.97159 7.37995 5.97159 8.19995C5.97159 9.01995 6.25469 9.71304 6.82087 10.2792C7.38706 10.8454 8.08015 11.1285 8.90015 11.1285Z" fill="white"/>
</svg>
