<svg width="17" height="16" viewBox="0 0 17 16" fill="none" xmlns="http://www.w3.org/2000/svg">
    <path d="M8.57292 13.1989L8.48804 13.2838L8.39467 13.1989C4.36285 9.54055 1.69761 7.12146 1.69761 4.66842C1.69761 2.97081 2.97081 1.69761 4.66842 1.69761C5.97558 1.69761 7.24878 2.54641 7.69865 3.70078H9.27743C9.72729 2.54641 11.0005 1.69761 12.3077 1.69761C14.0053 1.69761 15.2785 2.97081 15.2785 4.66842C15.2785 7.12146 12.6132 9.54055 8.57292 13.1989ZM12.3077 0C10.8307 0 9.41323 0.687531 8.48804 1.76551C7.56284 0.687531 6.14534 0 4.66842 0C2.05411 0 0 2.04562 0 4.66842C0 7.86841 2.88593 10.4912 7.25727 14.4551L8.48804 15.5756L9.7188 14.4551C14.0901 10.4912 16.9761 7.86841 16.9761 4.66842C16.9761 2.04562 14.922 0 12.3077 0Z" fill="black"/>
</svg>
