<svg width="22" height="22" viewBox="0 0 22 22" fill="none" xmlns="http://www.w3.org/2000/svg">
    <path d="M8.66866 20.6665H19.9976M10.0015 14.0024V20.6665M12.6671 14.0024V20.6665M15.9991 14.0024V20.6665M18.6648 14.0024V20.6665M20.664 14.0024H8.00226L13.8444 10.1639C13.9862 10.06 14.1573 10.0039 14.3331 10.0039C14.5089 10.0039 14.6801 10.06 14.8218 10.1639L20.664 14.0024Z" stroke="#3A3A3A" stroke-width="1.33281" stroke-linecap="round" stroke-linejoin="round"/>
    <path d="M5.10295 18.9755C3.69114 18.0303 2.54345 16.7409 1.76817 15.2291C0.992887 13.7174 0.615586 12.0329 0.671872 10.3349C0.728157 8.63681 1.21617 6.98108 2.08986 5.52394C2.96355 4.0668 4.19411 2.8563 5.66541 2.00666C7.13671 1.15703 8.80023 0.69628 10.499 0.667899C12.1977 0.639519 13.8757 1.04444 15.3746 1.84445C16.8734 2.64447 18.1438 3.81319 19.0656 5.24033C19.9875 6.66748 20.5306 8.30598 20.6435 10.0012" stroke="#3A3A3A" stroke-width="1.33281" stroke-linecap="round" stroke-linejoin="round"/>
    <path d="M6.08659 11.9972C5.95642 10.2393 6.02558 8.47233 6.29273 6.72996C6.53249 4.6916 7.20275 2.72748 8.25907 0.967773M0.694031 10.0042H6.00306M2.21077 5.3394H19.125M1.50349 14.6691H5.33666M13.0767 0.967773C14.2315 2.91974 14.9335 5.10594 15.131 7.36527" stroke="#3A3A3A" stroke-width="1.33281" stroke-linecap="round" stroke-linejoin="round"/>
</svg>
