<svg width="24" height="24" viewBox="0 0 24 24" fill="none" xmlns="http://www.w3.org/2000/svg">
    <path d="M22.4036 13.9718H22.0594V10.8715C22.0594 10.3807 21.8151 9.94612 21.442 9.68207V9.25994C21.442 8.64761 20.9439 8.14947 20.3316 8.14947H20.0746L21.0579 6.70658C21.3875 6.22295 21.2621 5.56129 20.7785 5.23166L14.1062 0.684662C13.8719 0.524965 13.5896 0.466028 13.3109 0.518901C13.1738 0.544483 13.0431 0.597002 12.9265 0.673417C12.8098 0.749831 12.7095 0.848624 12.6313 0.964077L6.87226 9.41492H5.26967L5.65631 5.50087C5.66067 5.45676 5.68933 5.41853 5.72931 5.40348C6.22745 5.21566 6.65915 4.86491 6.94485 4.41588C6.96735 4.38052 7.00981 4.36031 7.05374 4.36475L9.56734 4.61308C9.61017 4.61731 9.65341 4.61307 9.6946 4.60058C9.73579 4.5881 9.77411 4.56763 9.80739 4.54034C9.84066 4.51304 9.86824 4.47946 9.88854 4.44151C9.90883 4.40356 9.92146 4.36199 9.92569 4.31916C9.92992 4.27633 9.92567 4.23309 9.91319 4.1919C9.90071 4.15071 9.88023 4.11239 9.85294 4.07911C9.82565 4.04584 9.79207 4.01827 9.75412 3.99797C9.71617 3.97767 9.67459 3.96505 9.63176 3.96082L7.11816 3.71249C6.82639 3.68392 6.54814 3.81837 6.39182 4.064C6.18176 4.39418 5.86434 4.65203 5.49809 4.79012C5.22241 4.89407 5.03311 5.14168 5.004 5.43641L4.61102 9.41487H4.19311L4.80459 3.22446C4.8266 3.00164 5.02547 2.83795 5.24855 2.86027L10.3281 3.36205C10.4145 3.37059 10.5009 3.34443 10.5681 3.28931C10.6353 3.23418 10.6779 3.15462 10.6864 3.06813C10.6949 2.98163 10.6688 2.89529 10.6136 2.82808C10.5585 2.76088 10.479 2.71833 10.3925 2.70979L5.31297 2.20801C4.7306 2.15055 4.20982 2.57754 4.15228 3.15999L3.6594 8.14947H2.82003C2.20774 8.14947 1.70956 8.64761 1.70956 9.25994V9.54789C1.20864 9.77852 0.859863 10.2849 0.859863 10.8715V22.0434C0.859863 22.8466 1.5133 23.5 2.31655 23.5H20.6028C21.406 23.5 22.0594 22.8466 22.0594 22.0434V18.9431H22.4036C22.8099 18.9431 23.1404 18.6126 23.1404 18.2064V14.7086C23.1404 14.3023 22.8099 13.9718 22.4036 13.9718ZM20.3316 8.80497C20.5825 8.80492 20.7866 9.00905 20.7866 9.25998V9.42696C20.7256 9.4191 20.6642 9.41509 20.6028 9.41496H19.2122L19.6279 8.80497H20.3316ZM13.1729 1.33316C13.2028 1.289 13.2412 1.25121 13.2858 1.22198C13.3305 1.19275 13.3804 1.17265 13.4329 1.16286C13.4853 1.15278 13.5391 1.1532 13.5913 1.16408C13.6435 1.17496 13.6931 1.19609 13.7371 1.22624L20.4094 5.77324C20.5944 5.89933 20.6423 6.15242 20.5163 6.33741L18.4191 9.41483H17.9158L18.944 7.90604C19.1107 7.66135 19.1245 7.34995 18.9797 7.09331C18.7874 6.75235 18.7094 6.35089 18.7602 5.96281C18.7979 5.67409 18.6709 5.39225 18.4286 5.22721L14.9697 2.87007C14.7275 2.70498 14.4187 2.68984 14.1638 2.83058C13.8213 3.0197 13.4191 3.09396 13.0314 3.03969C12.7439 2.99935 12.4523 3.12918 12.288 3.37018L8.16875 9.41487H7.66544L13.1729 1.33316ZM13.3172 6.89857C11.89 6.89857 10.7185 8.01142 10.623 9.41487H8.96184L12.8296 3.73931H12.8296C12.8402 3.7236 12.8545 3.71071 12.8712 3.70173C12.8879 3.69276 12.9065 3.68797 12.9254 3.68778C12.9304 3.68778 12.9354 3.68814 12.9404 3.68881C13.4677 3.76258 14.0146 3.66168 14.4805 3.40441C14.5172 3.38411 14.5643 3.38703 14.6006 3.41174L18.0595 5.76892C18.0957 5.79363 18.1156 5.8364 18.1102 5.8779C18.0412 6.40569 18.1473 6.95167 18.4089 7.41536C18.4299 7.4526 18.4273 7.5003 18.4024 7.53691L17.1227 9.41483H16.0116C15.9161 8.01142 14.7445 6.89857 13.3172 6.89857ZM15.3544 9.41492H11.2802C11.3741 8.37322 12.2516 7.55407 13.3172 7.55407C14.383 7.55403 15.2605 8.37322 15.3544 9.41492ZM2.36502 9.25994C2.36502 9.009 2.5691 8.80488 2.82003 8.80488H3.59466L3.53442 9.41487H2.36502V9.25994ZM1.51532 10.8715C1.51532 10.4297 1.87474 10.0703 2.31655 10.0703H20.6028C21.0446 10.0703 21.4039 10.4297 21.4039 10.8715V11.7809H1.51532V10.8715ZM21.4039 22.0434C21.4039 22.4851 21.0446 22.8445 20.6028 22.8445H2.31655C1.87474 22.8445 1.51532 22.4851 1.51532 22.0434V21.134H3.28264C3.32567 21.134 3.36828 21.1255 3.40804 21.109C3.4478 21.0926 3.48393 21.0684 3.51436 21.038C3.54479 21.0076 3.56893 20.9714 3.5854 20.9317C3.60187 20.8919 3.61034 20.8493 3.61034 20.8063C3.61034 20.7632 3.60187 20.7206 3.5854 20.6809C3.56893 20.6411 3.54479 20.605 3.51436 20.5745C3.48393 20.5441 3.4478 20.52 3.40804 20.5035C3.36828 20.487 3.32567 20.4786 3.28264 20.4786H1.51532V12.4364H21.4039V13.9718H18.2879C17.306 13.9718 16.4556 14.5441 16.052 15.3725C16.0506 15.3753 16.0491 15.378 16.0477 15.3808C16.0443 15.3878 16.0413 15.3951 16.038 15.4022C15.9899 15.5044 15.9481 15.6101 15.9141 15.7191L15.9139 15.72C15.8396 15.9588 15.802 16.2074 15.8022 16.4575C15.8022 17.8281 16.9172 18.9431 18.2878 18.9431H21.4039V20.4786H5.38112C5.33808 20.4786 5.29547 20.487 5.25571 20.5035C5.21595 20.52 5.17983 20.5441 5.14939 20.5745C5.11896 20.605 5.09483 20.6411 5.07836 20.6809C5.06189 20.7206 5.05341 20.7632 5.05341 20.8063C5.05341 20.8493 5.06189 20.8919 5.07836 20.9317C5.09483 20.9714 5.11896 21.0076 5.14939 21.038C5.17983 21.0684 5.21595 21.0926 5.25571 21.109C5.29547 21.1255 5.33808 21.134 5.38112 21.134H21.4039V22.0434ZM22.485 18.2064C22.485 18.2512 22.4485 18.2877 22.4036 18.2877H18.2879C17.5941 18.2877 16.9892 17.8996 16.6789 17.3291C16.6363 17.2509 16.5996 17.1697 16.569 17.0861C16.497 16.89 16.4577 16.6782 16.4577 16.4575C16.4575 16.183 16.5193 15.912 16.6385 15.6647C16.6513 15.638 16.6648 15.6117 16.6789 15.5858C16.9892 15.0153 17.5941 14.6273 18.2879 14.6273H22.4036C22.4484 14.6273 22.485 14.6637 22.485 14.7086V18.2064Z" fill="#A19BAA"/>
</svg>

