<svg width="60" height="60" viewBox="0 0 60 60" fill="none" xmlns="http://www.w3.org/2000/svg">
    <path d="M11.0034 51.5187H48.6534C52.5034 51.5187 54.9034 47.3438 52.9784 44.0188L34.1534 11.4938C32.2284 8.16875 27.4284 8.16875 25.5034 11.4938L6.67843 44.0188C4.75343 47.3438 7.15343 51.5187 11.0034 51.5187ZM29.8284 34.0188C28.4534 34.0188 27.3284 32.8938 27.3284 31.5188V26.5188C27.3284 25.1438 28.4534 24.0188 29.8284 24.0188C31.2034 24.0188 32.3284 25.1438 32.3284 26.5188V31.5188C32.3284 32.8938 31.2034 34.0188 29.8284 34.0188ZM32.3284 44.0188H27.3284V39.0188H32.3284V44.0188Z" fill="white"/>
</svg>